<svg width="89" height="100" viewBox="0 0 89 100" fill="none" xmlns="http://www.w3.org/2000/svg">
<g clip-path="url(#clip0_143_2705)">
<path d="M88.6671 47.1148C88.7004 55.7789 88.1595 63.9844 85.1307 71.7645C84.049 74.5497 82.5263 77.1848 80.987 79.7615C79.7805 81.7712 78.1329 83.514 76.8682 85.4987C73.7229 90.427 69.2796 93.6125 63.9709 95.8806C55.259 99.5998 46.2142 100.684 36.8866 99.6165C27.9999 98.5991 20.1617 94.7299 12.7561 89.9767C11.0337 88.8676 9.41117 87.2666 8.36275 85.5154C6.36575 82.1798 4.74319 78.6024 3.12062 75.0501C2.66298 74.0494 2.70458 72.8069 2.5132 71.6812C1.75601 67.0948 0.641015 62.5334 0.316502 57.9136C-0.432373 47.39 -0.0579352 36.8663 3.2704 26.7429C5.84986 18.896 10.4097 12.2916 17.0497 7.23819C19.1549 5.63712 21.4514 4.66147 24.0558 4.08609C27.043 3.42731 29.8721 2.10143 32.851 1.39262C40.8306 -0.491966 48.8602 -0.333528 56.9065 1.08408C57.9383 1.26754 59.0449 1.17581 60.1017 1.03405C63.0556 0.625445 65.8015 1.3009 68.2228 2.86861C71.7092 5.13679 75.1541 7.49669 78.3909 10.1068C81.5528 12.6585 83.6996 16.0691 84.748 20.0217C87.1361 29.0277 89.1747 38.1004 88.6588 47.1148H88.6671ZM85.4802 47.5651C86.1043 38.6675 84.1322 29.8366 81.7691 21.0641C80.8289 17.5784 78.9983 14.5764 76.1609 12.3749C72.974 9.8983 69.629 7.62178 66.2591 5.39529C64.5117 4.24453 62.5064 3.86928 60.3596 4.18615C59.1947 4.36127 57.9549 4.42798 56.7983 4.22785C46.5138 2.51004 36.3873 2.51004 26.5937 6.74619C25.9447 7.02972 25.1625 7.02138 24.5052 7.28822C22.6912 8.03038 20.6776 8.54739 19.1382 9.68982C11.8409 15.1184 7.18119 22.4984 5.22579 31.2792C3.98599 36.8413 3.81957 42.6451 3.29536 48.3489C3.07902 50.6838 2.92092 53.0771 3.20383 55.387C3.8695 60.8323 4.81807 66.2442 5.65848 71.6728C5.79161 72.5067 5.79161 73.4073 6.13276 74.1495C7.42249 76.9597 8.7039 79.7949 10.2266 82.48C11.1003 84.0227 12.182 85.6822 13.5966 86.6411C19.6042 90.6938 25.9114 94.1378 33.1422 95.6888C41.5962 97.4984 49.9253 97.2482 58.138 94.6631C64.4368 92.6868 70.2947 89.96 74.0724 84.0644C75.4703 81.8796 77.2093 79.9116 78.5906 77.7269C79.8387 75.7505 81.0286 73.6908 81.8939 71.5227C84.9227 63.9343 85.6383 55.9457 85.4719 47.5734L85.4802 47.5651Z" fill="#EFECE8"/>
<path d="M63.3381 59.2395C56.3154 61.9079 49.5339 64.8516 44.2585 70.7805C41.8454 67.0864 38.5337 65.1935 34.4066 65.5604C29.9716 65.9606 25.8528 67.3199 22.6576 70.8472C19.8784 73.9076 18.4057 78.6274 19.945 80.7538C20.827 80.2952 21.6674 79.7031 22.6077 79.3946C24.5797 78.7442 26.4436 79.6865 26.9761 81.4543C27.4005 82.8469 26.0275 85.015 24.3967 85.5404C20.7438 86.7161 17.2907 84.498 16.6749 80.7121C16.0259 76.7428 17.4155 73.2989 19.3709 70.0634C23.5895 63.0754 29.1895 57.2298 35.0723 51.6594C36.9029 49.9333 36.8779 49.4997 34.8809 48.0821C32.3763 46.3142 29.8551 44.5797 27.4171 42.7368C27.0427 42.4533 26.7847 41.536 26.9595 41.1024C28.3657 37.6084 27.3422 34.0394 27.3173 30.512C27.3173 29.8783 26.5101 29.2612 26.0109 28.544C26.2356 28.3856 26.4436 28.1521 26.7015 28.0604C33.716 25.6838 39.7985 21.7228 45.4733 17.0697C47.1292 15.7105 47.1458 15.7021 48.1193 17.6618C50.4575 22.3899 54.1935 24.3412 59.1694 23.4156C62.2065 22.8486 65.4267 19.4797 65.7845 16.4276C65.8261 16.0524 65.6597 15.6604 65.5265 14.9266C64.9025 15.4019 64.5114 15.7105 64.1037 16.0023C62.9221 16.8446 61.674 17.1364 60.4342 16.1941C59.3109 15.3436 58.8615 14.1845 59.4024 12.8336C59.9848 11.3826 61.1414 10.6988 62.6974 10.7905C66.4834 11.0073 68.6135 14.4847 67.0742 18.1288C66.4501 19.6047 65.5515 21.0307 64.5197 22.2648C60.8502 26.6678 57.0975 31.0123 53.3032 35.3152C52.2215 36.541 52.1466 37.45 53.4447 38.4756C56.3736 40.8022 59.2443 43.2038 62.2065 45.4887C63.0386 46.1391 63.1884 46.5644 62.9055 47.6818C61.9569 51.4593 61.857 55.2952 63.3631 59.2395H63.3381ZM26.6682 63.6091C26.8263 63.7675 26.9844 63.9259 27.1425 64.0844C28.84 62.992 30.4625 61.7328 32.2598 60.8322C38.0511 57.9303 44.7993 56.7712 49.3758 62.0831C49.8085 62.5917 51.1148 63.0003 51.5309 62.7168C52.3297 62.1831 53.1118 61.1908 53.2949 60.2652C53.5695 58.8726 53.1784 57.3716 53.3199 55.9373C53.7692 51.4426 52.4129 47.9486 48.1776 45.8889C47.8614 45.7305 47.5702 45.4803 47.3372 45.2135C46.0807 43.8125 44.9741 43.9793 43.7093 45.3052C39.3991 49.8582 34.9974 54.3362 30.6872 58.8893C29.2727 60.3903 28.0079 62.033 26.6766 63.6091H26.6682ZM57.7049 27.5183C56.357 27.9436 55.3668 28.2605 54.3683 28.5774C49.8417 30.0367 44.142 29.7031 41.4876 24.1745C41.2963 23.7825 40.4975 23.4156 40.0398 23.4823C38.2259 23.7492 36.5534 25.7088 36.5783 27.5434C36.6283 30.6288 36.7198 33.7141 36.9528 36.7829C37.0194 37.6084 37.502 38.559 38.1011 39.1428C39.3076 40.3185 40.6389 41.4109 42.0867 42.2532C42.6526 42.5867 43.9756 42.495 44.4166 42.053C48.7018 37.7168 52.8705 33.2638 57.0642 28.8276C57.2889 28.5941 57.3721 28.2272 57.7049 27.5183Z" fill="#EFECE8"/>
</g>
<defs>
<clipPath id="clip0_143_2705">
<rect width="88.75" height="100" fill="white"/>
</clipPath>
</defs>
</svg>
