<svg width="691" height="100" viewBox="0 0 691 100" fill="none" xmlns="http://www.w3.org/2000/svg">
<g clip-path="url(#clip0_129_2061)">
<path fill-rule="evenodd" clip-rule="evenodd" d="M59.8405 27.8413C55.9098 29.7915 50.7255 29.4553 46.761 28.7828C43.9146 26.6644 44.5584 23.2683 43.0336 20.6456C36.8327 9.85206 11.487 12.4748 16.773 30.1278C20.2631 41.7283 39.5435 41.9637 49.5395 47.9153C51.8775 49.2939 54.9949 52.2529 55.7743 53.228C59.5694 58.0363 63.1273 66.2744 61.5347 77.0679C60.6876 82.6496 57.3669 88.6349 53.7412 92.1318C43.1692 102.354 19.2466 102.589 8.50512 92.2327C3.0158 86.9536 -0.304901 77.6396 6.095e-05 67.8211C3.4563 66.7788 8.7762 67.6194 13.0796 67.4176C15.3159 72.0242 14.8077 75.2522 16.2308 78.2784C21.8218 90.2152 43.5419 89.072 46.7948 75.8911C50.6577 60.0874 33.6137 57.5992 21.9573 52.9254C12.1308 48.924 3.04968 43.0733 1.49099 31.0357C-2.27021 1.78213 36.1889 -9.38129 52.928 8.84332C57.1636 13.4499 59.3999 20.0404 59.8066 27.8413H59.8405Z" fill="#232323"/>
<path fill-rule="evenodd" clip-rule="evenodd" d="M123.171 5.58172C125.17 20.0067 124.764 31.2038 125.577 50.0673C126.187 64.2569 127.779 83.8601 127.034 99.1258C123.713 100.067 117.444 100.235 114.09 99.462C111.921 91.6611 114.225 80.2287 111.548 71.3517C108.024 70.7129 104.365 71.0155 100.773 71.0827C97.2152 71.15 93.0135 70.6456 90.54 71.8897C87.8631 73.2011 84.3052 82.3806 82.8142 85.5077C80.2729 90.8541 78.172 95.696 75.6307 99.0921C72.0728 100.135 65.2281 100.168 61.6024 99.462C61.9074 95.0572 64.1777 90.9549 66.143 87.0209C79.358 60.4237 93.3185 32.5151 107.279 5.61534C112.497 4.70748 118.596 4.6066 123.205 5.61534L123.171 5.58172ZM99.6888 50.2018C98.5706 52.69 97.1475 55.2455 97.7235 57.7673C102.264 58.3726 106.398 57.8346 111.176 56.8931C111.853 49.731 111.718 36.9872 109.99 32.2461C109.854 31.8426 109.515 31.6409 108.905 31.7418C106.195 38.5003 102.535 43.9812 99.6888 50.2018Z" fill="#232323"/>
<path fill-rule="evenodd" clip-rule="evenodd" d="M425.185 5.58172C427.184 20.0067 426.778 31.2038 427.591 50.0673C428.201 64.2569 429.794 83.8601 429.048 99.1258C425.727 100.067 419.459 100.235 416.104 99.462C413.936 91.6611 416.24 80.2287 413.563 71.3517C410.039 70.7129 406.379 71.0155 402.787 71.0827C399.23 71.15 395.028 70.6456 392.554 71.8897C389.877 73.2011 386.319 82.3806 384.829 85.5077C382.287 90.8541 380.186 95.696 377.645 99.0921C374.087 100.135 367.242 100.168 363.617 99.462C363.922 95.0572 366.192 90.9549 368.157 87.0209C381.372 60.4237 395.333 32.5151 409.293 5.61534C414.512 4.70748 420.611 4.6066 425.219 5.61534L425.185 5.58172ZM401.703 50.2018C400.585 52.69 399.162 55.2455 399.738 57.7673C404.278 58.3726 408.412 57.8346 413.19 56.8931C413.868 49.731 413.732 36.9872 412.004 32.2461C411.869 31.8426 411.53 31.6409 410.92 31.7418C408.209 38.5003 404.549 43.9812 401.703 50.2018Z" fill="#232323"/>
<path fill-rule="evenodd" clip-rule="evenodd" d="M536.869 5.58172C538.868 20.0067 538.462 31.2038 539.275 50.0673C539.885 64.2569 541.478 83.8601 540.732 99.1258C537.411 100.067 531.143 100.235 527.788 99.462C525.62 91.6611 527.924 80.2287 525.247 71.3517C521.723 70.7129 518.063 71.0155 514.471 71.0827C510.914 71.15 506.712 70.6456 504.238 71.8897C501.561 73.2011 498.004 82.3806 496.513 85.5077C493.971 90.8541 491.87 95.696 489.329 99.0921C485.771 100.135 478.926 100.168 475.301 99.462C475.606 95.0572 477.876 90.9549 479.841 87.0209C493.056 60.4237 507.017 32.5151 520.977 5.61534C526.196 4.70748 532.295 4.6066 536.903 5.61534L536.869 5.58172ZM522.604 31.7081C519.893 38.4667 516.233 43.9476 513.387 50.1681C512.269 52.6564 510.846 55.2118 511.422 57.7337C515.962 58.3389 520.096 57.801 524.874 56.8595" fill="#232323"/>
<path fill-rule="evenodd" clip-rule="evenodd" d="M243.495 5.48082C244.376 25.3867 243.258 53.5306 243.326 76.8662C243.326 84.8016 243.8 92.2999 242.513 99.4284C237.091 100.101 235.126 100.235 229.433 99.2939C228.756 82.2125 230.755 55.8507 229.569 37.7942C227.841 37.727 226.994 39.8789 226.282 41.0222C224.147 44.2838 222.351 48.8567 220.149 52.8581C211.983 67.8884 203.579 84.1964 194.701 98.9912C190.94 100.067 186.908 100.336 182.164 99.3947C180.402 79.2535 182.774 55.5817 181.08 36.2475C168.509 56.3214 157.801 78.6819 145.908 99.3947C141.841 100.168 135.234 100.134 131.202 99.2602C136.216 86.651 143.366 75.084 149.77 62.9791C159.732 44.1157 171.118 24.0417 181.961 4.80833C186.196 5.1782 191.72 4.23671 195.04 5.48082C196.226 12.4748 195.379 18.9307 195.413 25.0168C195.481 37.3571 195.413 50.7734 196.091 66.6779C200.191 62.5084 202.156 56.7922 204.969 51.614C207.679 46.5366 210.526 41.1567 213.304 36.0121C218.929 25.5548 224.452 15.1648 230.518 5.34632C234.042 4.67383 240.141 4.50571 243.597 5.48082H243.495Z" fill="#232323"/>
<path fill-rule="evenodd" clip-rule="evenodd" d="M359.72 5.48082C360.601 25.3867 359.483 53.5306 359.551 76.8662C359.551 84.8016 360.025 92.2999 358.737 99.4284C353.316 100.101 351.351 100.235 345.658 99.2939C344.98 82.2125 346.979 55.8507 345.793 37.7942C344.065 37.727 343.218 39.8789 342.507 41.0222C340.372 44.2838 338.576 48.8567 336.373 52.8581C328.207 67.8884 319.804 84.1964 310.926 98.9912C307.165 100.067 303.133 100.336 298.389 99.3947C296.627 79.2535 298.999 55.5817 297.304 36.2475C284.733 56.3214 274.026 78.6819 262.132 99.3947C258.066 100.168 251.458 100.134 247.426 99.2602C252.441 86.651 259.591 75.084 265.995 62.9791C275.957 44.1157 287.342 24.0417 298.185 4.80833C302.421 5.1782 307.944 4.23671 311.265 5.48082C312.451 12.4748 311.604 18.9307 311.638 25.0168C311.705 37.3571 311.638 50.7734 312.315 66.6779C316.415 62.5084 318.381 56.7922 321.193 51.614C323.904 46.5366 326.75 41.1567 329.529 36.0121C335.154 25.5548 340.677 15.1648 346.742 5.34632C350.266 4.67383 356.365 4.50571 359.822 5.48082H359.72Z" fill="#232323"/>
<path fill-rule="evenodd" clip-rule="evenodd" d="M486.584 5.61533C487.296 9.95292 487.431 15.9381 485.974 18.3255C479.028 18.1237 472.658 18.5609 467.44 18.6617C465.271 44.1829 467.812 76.5636 466.626 99.2266C462.154 99.9664 457.477 100.303 453.547 99.0921C451.988 73.8399 453.445 44.4183 452.191 19.0316C446.905 17.5521 438.434 19.1997 433.114 17.7539C431.894 13.349 432.437 9.71755 432.64 5.58171C443.686 4.53934 454.868 4.77471 469.168 4.87559C475.301 4.90921 481.265 4.33759 486.584 5.58171V5.61533Z" fill="#232323"/>
<path fill-rule="evenodd" clip-rule="evenodd" d="M650.891 0.369874C665.563 -1.10961 676.61 6.3887 682.37 15.2656C695.009 34.8016 694.365 76.6308 675.593 92.5353C667.02 99.7646 649.536 102.959 637.947 96.4694C617.617 85.1379 611.551 38.9038 626.765 15.232C631.848 7.36382 638.388 1.61399 650.891 0.369874ZM642.556 18.0901C637.236 22.4277 634.017 36.0457 633.576 42.3336C632.322 60.6927 635.643 81.6745 648.384 85.7431C652.416 87.0208 660.142 86.0793 663.124 84.8016C666.749 83.2549 669.291 80.1614 670.714 77.9085C672.239 75.5212 673.933 70.9482 674.746 66.8796C675.627 62.5757 675.797 57.3974 675.966 53.0262C676.711 32.2798 671.019 11.4997 651.874 14.0215C647.706 14.5595 644.792 16.2408 642.556 18.0901Z" fill="#232323"/>
<path fill-rule="evenodd" clip-rule="evenodd" d="M591.254 61.8695C593.829 69.2334 598.404 74.9159 602.504 80.9012C606.502 86.7182 612.127 91.8628 614.296 99.3948C609.992 99.8991 603.893 100.235 598.506 99.2266C590.746 87.5252 582.647 75.1177 574.346 63.2818C571.77 59.5831 567.094 55.8843 565.807 51.7485C568.246 49.0585 575.566 50.9079 580.479 50.3363C583.359 50 586.849 49.1594 589.221 47.7135C597.624 42.6362 597.726 30.1278 591.661 22.3268C585.528 17.6194 573.295 17.8548 566.62 18.8299C564.248 29.0182 565.366 39.7781 565.739 50.2018C566.417 69.1325 565.231 82.9523 565.807 98.6886C563.096 100.135 557.064 100.269 552.727 99.0921C551.202 68.4936 551.101 35.1379 551.474 6.79221C555.912 6.32147 556.387 5.74985 566.518 5.07735C570.517 4.8756 576.853 4.57298 582.478 5.07735C591.932 5.88434 598.912 8.33895 604.266 15.1984C609.416 22.6967 612.906 32.7169 608.84 44.7209C607.688 48.117 603.622 52.5891 601.284 55.0773C598.946 57.5656 595.524 59.8857 591.22 61.8695H591.254Z" fill="#232323"/>
</g>
<defs>
<clipPath id="clip0_129_2061">
<rect width="690.909" height="100" fill="white"/>
</clipPath>
</defs>
</svg>
