<?xml version="1.0" standalone="no"?>
<!DOCTYPE svg PUBLIC "-//W3C//DTD SVG 20010904//EN"
 "http://www.w3.org/TR/2001/REC-SVG-20010904/DTD/svg10.dtd">
<svg version="1.0" xmlns="http://www.w3.org/2000/svg"
 width="260.000000pt" height="260.000000pt" viewBox="0 0 260.000000 260.000000"
 preserveAspectRatio="xMidYMid meet">
<metadata>
Created by potrace 1.14, written by Peter Selinger 2001-2017
</metadata>
<g transform="translate(0.000000,260.000000) scale(0.100000,-0.100000)"
fill="#000000" stroke="none">
<path d="M1098 2485 c-42 -7 -119 -27 -170 -43 -51 -17 -120 -38 -153 -47
-152 -42 -326 -217 -426 -430 -47 -100 -93 -274 -109 -416 -19 -165 -8 -471
23 -639 14 -74 27 -152 30 -172 9 -59 122 -280 171 -335 83 -92 328 -220 516
-270 194 -51 478 -41 679 23 204 66 315 149 452 337 199 275 257 495 247 940
-5 210 -18 296 -74 522 -48 189 -93 251 -276 382 -185 133 -195 138 -318 140
-58 1 -136 6 -175 12 -94 14 -322 12 -417 -4z m392 -76 c41 -6 123 -11 182
-12 l107 -2 131 -89 c220 -150 249 -188 305 -410 56 -224 69 -346 62 -595 -8
-285 -44 -460 -124 -601 -53 -92 -187 -272 -240 -320 -89 -82 -264 -154 -448
-187 -108 -18 -320 -13 -435 12 -159 35 -422 163 -500 245 -20 20 -62 90 -94
155 l-59 119 -34 215 c-37 241 -39 313 -18 551 15 170 32 270 61 356 19 58 77
175 107 218 34 50 149 166 194 197 51 35 343 135 433 147 91 13 281 13 370 1z"/>
<path d="M1672 2217 c-12 -13 -22 -35 -22 -50 0 -27 30 -66 53 -68 28 -3 53 4
70 19 13 11 20 13 29 4 8 -8 4 -26 -17 -67 -37 -78 -85 -108 -176 -113 -98 -6
-148 20 -202 105 -22 34 -45 63 -51 63 -6 0 -56 -34 -111 -75 -92 -69 -282
-175 -364 -203 -33 -12 -33 -13 -17 -31 22 -25 34 -210 17 -263 -6 -19 -9 -41
-6 -49 3 -8 55 -49 115 -92 61 -43 110 -83 110 -89 0 -6 -53 -66 -119 -133
-176 -182 -297 -345 -337 -455 -24 -65 -23 -166 1 -208 28 -47 73 -72 129 -72
39 0 53 5 77 29 36 37 38 79 6 109 -27 26 -84 29 -113 7 -34 -26 -44 -18 -44
33 0 62 46 158 97 203 67 58 156 93 254 97 80 4 91 2 138 -23 28 -16 63 -43
77 -62 l26 -34 60 56 c73 68 179 131 305 182 82 33 93 41 87 58 -12 38 -16
200 -6 244 12 51 19 43 -141 174 -59 48 -107 93 -107 100 0 7 68 91 151 187
177 206 209 255 209 324 0 41 -5 53 -34 82 -28 28 -41 34 -78 34 -34 0 -50 -6
-66 -23z m-435 -321 c33 -51 83 -85 145 -97 47 -10 67 -8 138 10 46 11 85 19
87 17 7 -6 -310 -336 -329 -341 -30 -10 -118 49 -144 97 -9 17 -16 75 -20 157
l-7 130 31 30 c41 41 71 40 99 -3z m165 -508 c81 -54 101 -95 106 -224 7 -165
-33 -205 -124 -125 -102 90 -266 79 -433 -29 -34 -22 -66 -40 -72 -40 -15 0
71 98 251 284 156 163 187 189 205 178 5 -3 36 -23 67 -44z"/>
</g>
</svg>
