<svg width="159" height="16" viewBox="0 0 159 16" fill="none" xmlns="http://www.w3.org/2000/svg">
<path fill-rule="evenodd" clip-rule="evenodd" d="M36.7451 8.42729C36.4142 8.70188 37.0366 8.70188 36.7544 8.83917L35.4598 8.9307C35.1476 8.88493 35.1165 8.65611 34.7275 8.65611C34.7036 8.74764 34.7586 8.88493 34.604 8.9307C33.9868 9.15952 32.991 8.70188 32.4298 9.11375C32.0636 8.97646 32.1165 9.02223 31.5481 9.11375C31.4941 9.02223 31.3375 8.97646 31.3853 8.79341C30.5834 8.88493 29.8075 8.97646 29.2069 8.79341C29.1861 9.02223 28.6156 9.02223 28.2017 9.06799L28.1976 8.88493C26.9839 9.11375 26.1769 8.97646 24.8574 9.11375C24.7578 9.29681 24.4746 9.38834 24.1385 9.4341C23.5638 9.25105 22.6739 8.88493 21.927 9.11375C21.3773 8.88493 20.4468 9.02223 19.7507 9.20528C19.8742 8.9307 19.4105 9.06799 19.1522 9.11375C18.9427 9.02223 18.9126 8.83917 18.7031 8.74764C18.3691 8.88493 18.3442 8.9307 18.2943 9.02223C18.2135 8.88493 18.1398 9.06799 18.0111 9.11375C17.9572 9.02223 17.8265 8.97646 18.006 8.88493C17.5423 9.02223 17.1502 8.88493 17.1564 9.15952C17.1025 9.06799 16.8442 9.11375 16.7124 9.02223C16.8213 9.25105 16.4313 9.20528 16.3037 9.29681C15.5216 9.11375 14.7498 9.38834 13.9728 9.4341C13.9708 9.34258 14.0745 9.34257 14.0984 9.25105C12.9386 9.5714 12.3421 9.5714 11.0714 9.5714C10.6845 9.66292 10.6368 9.84598 10.2229 9.89174C9.88676 9.93751 10.0362 9.66292 9.77685 9.66292C9.49468 9.80022 9.12853 9.66292 8.61502 9.89174L8.61091 9.70869C7.18769 9.84598 6.82463 9.84598 5.86512 9.84598C5.87026 10.0748 5.32464 10.029 5.1462 10.1663C5.09125 10.029 5.34852 9.93751 5.14106 9.93751C4.62857 10.2121 4.13482 10.1663 3.40973 10.2121C2.76758 10.4867 1.73233 10.5782 0.959488 10.807C1.12023 11.0358 1.74056 10.9443 2.004 11.1274C0.896092 11.4477 2.48417 11.7223 1.76422 11.9969C2.02355 11.9969 2.25694 11.9969 2.36273 12.0884C2.15835 12.2257 2.00276 12.2257 1.79324 12.1342C1.85333 12.5003 2.60127 12.3172 2.55866 12.7291C2.43209 12.8664 2.33144 13.0037 2.15197 13.0952C1.86671 13.0952 1.1904 13.0037 0.988078 13.2325C1.30133 13.3241 1.53678 13.4156 1.74733 13.5529C1.48903 13.5986 1.02121 13.5529 1.18195 13.7817C1.51805 13.7359 1.7992 13.5529 1.90807 13.7817C1.48903 13.5986 1.78149 13.919 1.47236 14.0105C1.44437 13.919 1.41638 13.8275 1.18401 13.8732C1.34475 14.102 0.876932 14.0563 0.618632 14.102C0.493083 14.2851 1.06463 14.3309 0.625833 14.4224C0.622747 14.2851 0.492055 14.2393 0.339544 14.3766C0.192177 14.7427 1.29803 14.3309 0.786574 14.6512C1.45877 14.5597 1.54377 14.88 1.95972 14.9258L1.96384 15.1088C2.42857 15.0173 2.65991 14.9258 2.25013 15.1546C2.69304 15.2461 3.23763 15.2461 3.98762 15.1546C4.21485 14.88 3.43686 14.88 3.82277 14.7427C3.84973 14.7885 3.95449 14.8343 4.10906 14.7885C4.06131 14.9716 4.14219 15.1088 4.27391 15.2004C4.94611 15.1088 4.96998 15.0173 5.56747 15.0631C5.53742 14.88 5.50634 14.6512 5.84244 14.6054C5.87249 14.7885 5.87763 15.0173 5.72409 15.1088L6.44815 15.0173C6.43992 14.6512 6.80298 14.6512 6.40679 14.3309L6.97628 14.2851C6.8248 14.4682 7.08722 14.6054 6.70337 14.8343C7.11726 14.7885 7.29468 14.6054 7.70857 14.5597C7.71063 14.6512 7.6069 14.6512 7.58303 14.7427C8.12864 14.7885 8.04467 14.5139 8.30194 14.4224C8.20336 14.6512 8.51352 14.6054 8.4668 14.8343C8.25728 14.7427 8.02594 14.8343 7.89936 14.9716C8.15663 14.88 8.75515 14.9716 8.75103 14.7885C8.54357 14.7885 8.56539 14.6054 8.46063 14.5597C8.71687 14.4224 9.20959 14.4224 9.34028 14.4682C9.2915 14.6054 9.13694 14.6512 9.21885 14.8343C9.42528 14.7885 9.76241 14.7885 9.78628 14.697C9.52799 14.7427 9.75315 14.3766 10.0654 14.4224C10.1203 14.5597 9.88796 14.6054 9.78628 14.697C10.5404 14.7885 10.7427 14.5597 11.3589 14.2851C11.3381 14.5139 11.0809 14.6054 11.6493 14.5139C11.9336 14.4682 11.3828 14.1936 11.9264 14.1478C12.1888 14.2851 12.0922 14.6054 12.2478 14.6054C12.2468 14.5597 12.2717 14.5139 12.3755 14.5139C12.4532 14.5139 12.556 14.4682 12.529 14.4224C12.4253 14.4224 12.2448 14.4682 12.2427 14.3766C12.3184 14.2851 12.3942 14.1936 12.5218 14.102C12.6836 14.3766 12.9886 14.102 13.4076 14.2851C13.613 14.1936 13.4004 13.9647 13.6846 13.919C13.8983 14.1936 14.0259 14.102 14.5684 14.0105C14.5964 14.102 14.364 14.1478 14.5725 14.1936C14.6213 14.0563 14.7281 14.1936 14.8588 14.2393C15.2116 13.7817 14.4108 13.919 14.1245 13.8732C14.3517 13.5986 14.5892 13.7817 14.8455 13.6444C14.6722 14.0105 15.2904 13.8275 15.2945 14.0105C15.8589 13.7359 16.5144 14.0563 16.8692 13.6902C16.8962 13.7359 16.8734 13.8732 17.0279 13.8275C16.919 13.5986 17.0726 13.5071 17.4367 13.5529C17.3879 13.6902 17.2333 13.7359 17.3152 13.919L18.0393 13.8275C17.8216 13.3698 18.531 13.7817 18.6026 13.5071C18.447 13.5071 18.418 13.3698 18.5985 13.3241C18.6006 13.4156 18.7821 13.4156 18.7592 13.5529C19.2458 13.2783 20.003 13.5071 20.336 13.3241C20.4439 13.5071 21.226 13.6902 21.5061 13.4613C21.2727 13.4613 21.4231 13.2325 21.2157 13.2325C21.2965 13.3698 20.7042 13.5529 20.6482 13.3698C21.0123 13.4156 21.2634 13.0495 20.9253 13.0037C20.9014 13.0952 20.9034 13.1868 20.6441 13.1868C20.6898 12.9122 21.1432 12.3172 20.4751 12.5918C21.0197 12.5918 20.4564 12.9122 20.3568 13.0952C20.0975 13.0952 19.8641 13.0952 19.7583 13.0037C20.3298 13.0495 20.528 12.6376 20.0353 12.6376C20.0114 12.7291 20.0135 12.8206 19.7542 12.8206C20.0353 12.6376 19.7459 12.4545 19.4337 12.4088C19.2044 12.5918 19.1318 12.8206 18.8755 12.9579C18.8735 12.8664 18.7438 12.8664 18.7169 12.8206C18.7138 12.6834 19.1816 12.7291 19.1515 12.5461C18.6848 12.5461 17.7294 12.7291 17.9907 12.8206C18.2511 12.8664 18.4503 12.5003 18.5602 12.7749C18.4326 12.8664 18.2791 12.9579 18.1515 13.0495C17.6847 13.0495 17.831 12.6376 17.2626 12.7291C16.9326 13.0495 16.5675 12.9579 16.1297 13.0952L16.1225 12.7749C15.8352 12.6834 15.942 12.8206 15.5531 12.8206C15.5759 12.6834 15.3933 12.6376 15.1091 12.6834C15.0603 12.8206 15.3466 12.8664 15.1143 12.9122C14.9327 12.9122 14.7004 12.9579 14.6724 12.8664C14.7471 12.7291 14.716 12.5003 14.9473 12.4088L15.2316 12.363C15.2596 12.4545 15.0272 12.5003 15.2357 12.5461C15.3861 12.3172 15.5885 12.0884 15.9225 11.9511C16.5169 11.8596 16.7285 12.0427 17.2161 11.8138C17.298 11.9969 17.66 11.9511 17.3789 12.1342C18.5137 11.8596 19.4504 11.9969 20.4027 11.6765C20.7398 11.6765 20.6941 11.9511 21.1329 11.8596C21.7263 11.7223 22.2729 11.8138 23.1516 11.6765C23.1765 11.6308 23.1475 11.4935 23.2771 11.4935C23.7678 11.402 23.9005 11.5393 24.1609 11.585C24.1817 11.3562 24.0189 11.0358 24.4328 10.9901C25.1391 11.2647 26.7398 10.9443 27.1724 10.5782C28.078 10.4867 28.8051 10.5324 29.6288 10.2579C29.2896 10.1663 28.5417 10.3494 28.5864 10.029C29.3633 9.98327 29.6434 9.75445 29.91 10.0748C30.186 9.66292 30.8125 9.84598 31.4836 9.70869C31.6506 10.2121 33.1112 9.4341 33.2553 10.0748C33.1413 9.61716 33.9473 9.70869 34.414 9.70869C34.4369 9.5714 34.4857 9.4341 34.6911 9.34258C35.136 9.52563 36.5603 9.4341 37.1516 9.20528C37.7771 9.34258 39.0935 9.06799 39.0426 9.11375C38.887 9.11375 38.8652 9.29681 39.0468 9.29681C39.0894 8.88493 40.0332 9.34257 40.3372 9.02223C39.8725 9.11375 39.8684 8.9307 39.7356 8.79341C39.9462 8.9307 40.4877 8.79341 40.4679 9.06799C41.4793 9.06799 42.1972 8.70188 42.6463 9.06799C42.7698 8.79341 42.9564 9.02223 43.2117 8.83917C43.3693 8.9307 43.3744 9.15952 43.5321 9.25105C44.0777 9.29681 43.9419 9.02223 44.3827 9.02223C44.4947 9.38834 44.0798 9.38834 43.6638 9.34258C43.4345 9.52563 43.9065 9.75445 44.2706 9.80022C44.2934 9.66292 44.0849 9.61716 44.1078 9.47987C44.422 9.61716 44.9117 9.47987 45.1161 9.34258C45.1451 9.47987 45.226 9.61716 45.4085 9.66292C45.4324 9.5714 45.6399 9.5714 45.8463 9.52563C45.7094 9.20528 44.725 9.25105 44.5165 9.20528C45.0819 8.97646 45.3672 8.97646 46.2458 8.83917C46.2727 8.88493 46.2499 9.02223 46.4045 8.97646C46.4014 8.83917 46.3724 8.70188 46.6836 8.70188C46.8163 8.83917 46.2758 9.02223 46.6908 9.02223C46.7136 8.88493 47.6711 8.79341 47.7001 8.9307C47.6762 9.02223 47.5476 9.06799 47.4189 9.11375C47.2893 9.11375 46.0175 9.06799 45.9729 9.38834C46.6689 9.20528 47.5579 9.52563 48.4283 9.02223C48.949 9.11375 49.1015 8.97646 49.7228 8.9307C49.7788 9.11375 49.1875 9.34258 49.4479 9.38834C49.785 9.38834 49.5973 9.11375 49.8826 9.11375C50.4271 9.11375 50.5848 9.20528 51.2092 9.29681C51.1605 9.4341 50.3856 9.5714 50.8025 9.66292C50.8742 9.38834 51.1148 9.70869 51.372 9.61716C51.369 9.47987 51.3399 9.34258 51.6511 9.34258C51.6303 9.5714 51.398 9.61716 51.8139 9.66292C51.9664 9.52563 52.2237 9.4341 52.3762 9.29681C52.2725 9.29681 52.091 9.29681 52.0899 9.25105C52.6076 9.20528 52.5878 9.47987 52.9778 9.52563C53.4395 9.29681 54.2144 9.15952 54.9954 9.29681C55.064 8.88493 54.4778 9.34258 54.5474 8.97646C54.8326 8.97646 55.1698 8.97646 55.149 9.20528C55.4342 9.20528 55.4311 9.06799 55.5857 9.02223C55.5369 9.15952 56.1354 9.25105 56.1573 9.06799C55.9757 9.06799 55.9706 8.83917 56.1521 8.83917C56.1894 9.34257 57.0847 8.79341 57.4798 9.06799C57.5037 8.97646 57.4488 8.83917 57.6033 8.79341C57.4529 9.02223 57.8491 9.34258 58.0514 9.11375C57.9217 9.11375 57.9166 8.88493 58.0452 8.83917C58.2786 8.83917 58.18 9.06799 58.4892 8.97646C58.93 8.97646 59.1303 8.65611 59.4974 8.83917C59.4902 8.51882 59.6998 8.61035 60.0639 8.65611C60.0877 8.56459 60.0328 8.42729 60.1873 8.38153C60.5774 8.42729 60.6344 8.65611 61.0752 8.65611C61.3335 8.61035 61.04 8.24424 61.3502 8.19847C61.8699 8.24424 62.2111 8.42729 62.681 8.56459C62.8595 8.42729 62.8024 8.19847 63.2433 8.19847C63.5566 8.29 63.0669 8.42729 63.404 8.42729C64.0991 8.19847 64.6498 8.47306 65.5773 8.19847C65.5067 8.51882 66.459 8.19847 66.4651 8.47306C66.8251 8.33577 66.2007 8.24424 66.5866 8.10694C67.3884 8.01542 67.4144 8.01542 68.0388 8.10694C68.2599 7.55778 69.9329 8.15271 70.2048 7.55778C70.9869 7.74083 71.7161 7.87812 72.5377 7.51201C72.1778 7.6493 72.7005 7.83236 72.4153 7.83236C72.2338 7.83236 72.0751 7.69507 71.9744 7.83236C72.3375 7.83236 72.0065 8.10694 71.8509 8.10694C71.0491 8.19847 71.0491 8.19847 70.2452 8.19847C69.9111 8.33577 69.99 8.38153 69.5221 8.33576C69.4972 8.38153 69.5262 8.51882 69.3706 8.51882L69.3665 8.33576C68.7182 8.33576 68.3064 8.47306 67.9194 8.56459C67.3199 8.42729 65.9226 8.56459 65.3033 8.70188C65.0191 8.74764 64.9901 8.61035 64.7318 8.65611C64.6042 8.74764 64.4506 8.83917 64.2971 8.9307C62.9445 8.74764 61.6342 9.29681 59.9455 9.15952C59.3791 9.34258 58.5772 9.4341 57.6426 9.38834C57.0534 9.70869 56.4736 9.29681 56.0369 9.47987C55.8905 9.89174 56.5763 9.25105 56.4829 9.70869C56.041 9.66292 55.7578 9.75445 55.6001 9.66292C55.5981 9.5714 55.8574 9.5714 55.8813 9.47987C55.4612 9.25105 55.5482 9.66292 55.3169 9.75445C55.207 9.47987 54.874 9.66292 54.7474 9.80022C54.7443 9.66292 54.6385 9.5714 54.457 9.5714C54.3294 9.66292 54.1759 9.75445 54.0223 9.84598C53.7309 9.5714 53.7889 9.84598 53.2972 9.89174C53.0577 9.61716 52.8004 9.70869 52.2838 9.80022C52.5121 9.5714 51.6573 9.61716 51.7123 9.75445C52.2278 9.61716 52.0057 10.1206 51.7195 10.0748C51.9747 9.89174 51.6614 9.80022 51.427 9.75445C50.791 10.3036 49.3046 9.93751 48.2475 10.2121L48.2434 10.029C47.7517 10.0748 47.4426 10.1663 47.2392 10.3494C46.9478 10.0748 46.6428 10.3494 46.0723 10.3494C45.8959 10.5782 46.4674 10.624 46.0795 10.6697C45.8181 10.5782 45.4073 10.7613 44.9125 10.6697C44.372 10.8528 44.0826 10.6697 43.622 10.9443C42.7912 10.8986 41.704 10.9901 40.7227 11.1731C40.4344 11.0358 40.8981 10.8986 40.4043 10.8528C40.2528 11.0358 40.3907 11.402 40.0038 11.4935C40.1013 11.2189 40.1034 11.3104 39.9945 11.0816C39.063 11.1731 38.5225 11.3562 37.8223 11.3562C37.8254 11.4935 37.7238 11.585 37.5433 11.6308C37.5153 11.5393 37.4873 11.4477 37.2549 11.4935C36.7373 11.5393 37.7777 11.6765 37.2611 11.7681C36.87 11.6765 36.7342 11.402 36.2456 11.585C36.204 12.0427 36.6294 11.3562 36.6875 11.6308C36.4572 11.7681 35.816 12.0884 36.4146 12.1799C36.6189 12.0427 36.5619 11.8138 36.9768 11.8138C36.9789 11.9054 37.1086 11.9054 37.1355 11.9511L36.6957 11.9969C36.8336 12.363 36.1604 12.4088 35.9747 12.2257C35.9457 12.0884 36.1262 12.0427 36.0962 11.8596C35.3949 11.8138 35.8202 12.2715 35.2496 12.2715C35.2953 11.9969 35.6355 12.1342 35.37 11.8596C34.7248 11.9969 34.171 11.585 33.9209 11.9969C34.1792 11.9511 34.259 12.0427 34.2113 12.2257C34.8067 12.1799 34.9436 12.5003 35.6666 12.363C35.6209 12.6376 36.0348 12.5918 36.2692 12.6376C36.2361 12.3172 36.3979 12.5918 36.707 12.5003C36.8855 12.363 37.0629 12.1799 37.4239 12.0884C37.1147 12.1799 37.125 12.6376 37.4311 12.4088C37.3533 12.4088 37.2745 12.363 37.429 12.3172C37.6136 12.4545 38.2401 12.6376 38.3107 12.3172C38.207 12.3172 38.0255 12.3172 38.0244 12.2715C38.7786 12.363 40.0752 12.363 41.2101 12.0884C41.7826 12.1799 41.985 11.9511 42.5067 12.0884C42.8148 11.9511 42.3211 11.9054 42.6302 11.8138C42.8117 11.8138 42.9434 11.9054 42.9206 12.0427C43.5638 11.8138 44.322 12.0884 44.6509 11.7223C44.0306 11.8138 43.8449 11.6308 43.6375 11.6308C43.819 11.6308 43.8418 11.4935 44.0752 11.4935C44.4196 11.8138 44.7485 11.4477 44.9259 11.2647C44.57 11.585 45.2173 11.5393 44.9372 11.7681C45.4777 11.585 45.2494 11.8138 45.6654 11.8596C45.7619 11.5393 45.9973 11.6308 46.3884 11.7223C46.5358 11.3562 46.7484 11.585 47.1053 11.3104C47.1592 11.402 47.2899 11.4477 47.5492 11.4477C47.6768 11.3562 47.8303 11.2647 47.9839 11.1731C48.2784 11.585 49.1041 11.402 49.5907 11.1274C49.9278 11.1274 50.684 11.3104 50.8873 11.1274C50.8095 11.1274 50.7058 11.1274 50.7297 11.0358C50.8075 11.0358 50.8832 10.9443 50.7276 10.9443C50.7328 11.1731 50.2619 10.9901 50.2857 10.8986C50.6788 11.0816 50.7235 10.7613 51.1384 10.7613C51.3531 11.0816 52.7971 10.7155 52.1447 10.5324C52.404 10.5324 52.5845 10.4867 52.7121 10.3951C52.9206 10.4409 52.7452 10.7155 53.0046 10.7155C52.9465 10.4409 53.3086 10.3951 53.4071 10.1663C53.4611 10.2579 53.6177 10.3036 53.5699 10.4867C54.1674 10.5324 54.2141 10.3036 54.4185 10.1663C55.0689 10.2579 55.7878 9.93751 56.1591 10.3036C56.0482 9.98327 56.9278 9.89174 57.4496 10.029C57.5253 9.93751 57.6011 9.84598 57.7287 9.75445C58.4319 9.89174 58.6789 9.34257 58.8905 9.52563C58.8427 9.70869 58.4019 9.70869 58.4859 9.98327C59.1021 9.70869 59.0595 10.1206 59.5013 10.1663C59.5232 9.98327 60.1217 10.0748 60.38 10.029C60.3769 9.89174 60.3479 9.75445 60.6591 9.75445C60.437 10.2579 61.4807 9.38834 61.5418 9.80022L61.5346 9.47987C61.7939 9.47987 61.9744 9.4341 62.102 9.34258C62.2119 9.61716 62.2089 9.47987 62.1113 9.75445C62.3188 9.75445 62.4225 9.75445 62.5532 9.80022C62.9111 9.5714 62.3426 9.66292 62.3883 9.38834C63.2172 9.34258 63.1196 9.61716 63.5522 9.25105C63.297 9.4341 63.6331 9.38834 63.5615 9.66292C63.8208 9.66292 64.0023 9.66292 64.133 9.70869C63.658 9.34257 64.827 9.4341 65.0117 9.5714C65.1352 9.29681 65.2389 9.29681 65.5791 9.4341C65.6019 9.29681 65.52 9.11375 65.7005 9.06799C65.9681 9.4341 65.8312 9.11375 66.4277 9.11375C66.4048 9.25105 66.5874 9.29681 66.5905 9.4341C67.0583 9.47987 67.133 9.34258 67.3115 9.20528C67.7264 9.20528 67.8001 9.02223 68.0314 8.9307C68.4982 8.9307 68.7565 8.88493 68.882 8.70188C69.2472 8.79341 68.6289 8.97646 69.0448 9.02223C69.2482 8.83917 69.3478 8.65611 69.8924 8.65611C70.0272 8.88493 69.6901 8.88493 69.772 9.06799C70.2927 9.15952 69.8436 8.79341 70.2067 8.79341C70.6496 8.88493 71.1839 8.42729 71.2191 8.83917C71.0096 8.74764 70.6724 8.74764 70.6506 8.9307L71.2201 8.88493C71.2897 8.51882 71.7803 8.42729 72.0594 8.15271C71.9868 8.38153 71.8851 8.47306 72.2243 8.56459C72.27 8.29 73.0251 8.42729 73.0718 8.19847C73.0541 8.56459 73.6683 8.19847 73.7969 8.15271C73.9048 8.33577 73.3882 8.42729 73.9577 8.38153C74.1351 8.19847 74.3384 8.01542 74.9618 8.06118C75.0563 7.6493 74.4203 8.19847 74.3882 7.92389C74.8561 7.96965 74.5895 7.6493 74.9526 7.6493C74.9318 7.87812 75.0106 7.92389 75.2409 7.7866C75.243 7.87812 75.0625 7.92389 75.1174 8.06118C75.5811 7.92389 76.0033 8.24424 76.1278 8.01542C75.9722 8.01542 75.7616 7.87812 75.9681 7.83236C76.3052 7.83236 76.2595 8.10695 76.6993 8.06118C77.0013 7.6493 77.3446 7.92389 77.9929 7.92389C78.1952 7.69507 77.9328 7.55778 78.1133 7.51201H78.3986C77.967 7.92389 78.6071 7.55778 78.8446 7.74083C78.5863 7.7866 78.3539 7.83236 78.2782 7.92389C78.6194 8.10694 78.6641 7.7866 79.0002 7.74083C79.3632 7.74083 79.4379 7.60354 79.5645 7.46625C79.4348 7.46625 78.9121 7.28319 79.2741 7.23743C79.3861 7.60354 80.1289 7.19166 80.2886 7.37472C80.3124 7.28319 80.2575 7.1459 80.4121 7.10014C80.467 7.23743 80.4722 7.46625 80.8601 7.42048C81.1392 7.1459 80.2845 7.19166 80.6973 7.10014C80.9846 7.19166 81.2201 7.28319 81.4306 7.42048C81.5303 7.23743 81.8664 7.19166 81.9929 7.05437L82.0001 7.37472C82.44 7.32896 82.6433 7.1459 83.0053 7.10014C83.0603 7.23743 82.803 7.32896 83.0115 7.37472C83.218 7.32896 83.0302 7.05437 83.2885 7.00861C83.496 7.00861 83.5987 6.96284 83.7273 6.91708C83.8093 7.10014 84.1826 7.55778 84.4627 7.32896C84.359 7.32896 84.1775 7.32896 84.1754 7.23743C84.665 7.10013 84.805 7.55778 85.0582 7.28319C84.9285 7.28319 84.4057 7.10014 84.7677 7.05437C84.8227 7.19166 85.081 7.1459 85.2117 7.19166C85.4638 6.87131 86.4151 6.5052 86.7792 6.55097C86.4711 6.68826 86.3206 6.91708 85.9337 7.00861C86.6878 7.10013 86.5499 6.73402 86.9368 6.64249C86.9399 6.77979 86.9689 6.91708 87.0996 6.96284C86.7843 6.77979 86.6069 6.96284 86.5332 7.1459C86.998 7.05437 87.1826 7.19166 87.5395 6.91708C87.5675 7.00861 87.5954 7.10014 87.8278 7.05437C88.0861 7.00861 87.7469 6.91708 87.9793 6.87131C88.3434 6.91708 88.8112 6.96284 89.279 7.00861C89.1152 6.64249 90.2013 6.5052 89.8341 6.32215C89.6349 6.68826 89.1547 6.09333 88.8155 6.0018C89.2885 6.27638 89.1485 5.81874 89.3799 5.72721C89.4597 5.81874 89.5396 5.91027 89.6703 5.95603C89.744 5.77298 89.4764 5.40686 89.7866 5.3611L89.7907 5.54416C90.6164 5.3611 91.217 5.54416 91.9639 5.31534C91.966 5.40686 92.0956 5.40686 92.1236 5.49839C92.1257 5.58992 91.8663 5.58992 91.8425 5.68145C92.025 5.72721 92.2335 5.77298 92.5696 5.72721C92.6682 5.49839 92.357 5.49839 92.4048 5.31534C93.1029 5.22381 94.0842 5.04075 95.1516 5.22381C95.2782 5.08652 95.6651 4.99499 95.8756 5.13228C95.8995 5.04075 95.8446 4.90346 96.0251 4.8577C96.1049 4.94922 96.1848 5.04075 96.3155 5.08652C96.439 4.81193 97.5862 5.08652 98.3351 4.94922C98.4679 5.08652 98.7023 5.13228 99.0643 5.08652C99.0892 5.04075 99.0602 4.90346 99.2158 4.90346C99.4793 5.08652 100.094 4.76617 100.221 4.62887C100.509 4.76617 100.766 4.62887 101.103 4.62887C101.525 4.94922 102.371 4.53735 103.001 4.8577C103.021 4.58311 103.413 4.7204 103.572 4.8577C103.671 4.67464 103.85 4.53735 104.289 4.49158C104.269 4.7204 104.631 4.67464 104.737 4.81193C104.891 4.7204 104.965 4.53735 105.17 4.44582C105.199 4.58311 105.535 4.53735 105.743 4.53735C105.606 4.217 106.519 4.44582 106.618 4.26276C106.62 4.35429 106.802 4.35429 106.779 4.49158C107.765 4.53735 108.641 4.26276 109.114 4.53735C109.111 4.40005 109.528 4.49158 109.551 4.35429C109.473 4.35429 109.394 4.30853 109.549 4.26276C109.864 4.44582 110.846 4.30853 110.999 4.17123C111.132 4.30853 111.212 4.44582 111.574 4.40005C111.756 4.40005 111.78 4.30853 112.013 4.30853C112.509 4.44582 113.884 4.44582 114.189 4.17123C114.324 4.44582 114.527 4.217 114.759 4.17123C114.786 4.217 114.763 4.35429 114.919 4.35429C115.02 4.26276 115.227 4.217 115.485 4.17123C115.641 4.17123 115.721 4.26276 115.775 4.35429C116.289 4.17123 116.576 4.26276 117.226 4.30853C117.483 4.217 117.636 4.07971 117.946 4.03394C118.911 4.30853 120.122 3.94241 121.29 3.98818C121.293 4.12547 121.372 4.17123 121.451 4.217C121.838 4.12547 122.096 4.07971 122.614 4.03394C122.899 4.03394 123.108 4.12547 123.497 4.12547C123.833 4.07971 123.986 3.94241 124.375 3.94241C124.481 4.03394 124.689 4.07971 124.95 4.12547C125.235 4.12547 125.259 4.03394 125.518 4.03394C125.804 4.07971 125.885 4.217 126.248 4.217C126.529 4.03394 127.077 4.17123 127.415 4.217C128.057 3.94241 128.761 4.07971 129.432 3.94241C129.46 4.03394 129.591 4.07971 129.721 4.12547C130.262 3.94241 130.578 4.17123 131.173 4.12547C131.533 3.98818 132.025 3.94241 132.333 3.80512C132.726 3.98818 132.905 3.85089 133.222 4.12547C133.166 3.94241 133.241 3.80512 133.5 3.80512L133.507 4.12547C133.919 3.98818 133.921 4.07971 134.229 3.94241C134.048 3.94241 134.043 3.71359 134.223 3.66783C134.252 3.80512 134.333 3.94241 134.516 3.98818C134.539 3.85089 134.613 3.71359 134.794 3.66783C134.823 3.80512 135.026 3.62206 135.081 3.75936C135.085 3.94241 134.694 3.85089 134.803 4.07971C135.325 4.217 134.875 3.80512 135.239 3.85089C135.267 3.94241 135.218 4.07971 135.4 4.07971C135.656 3.94241 136.123 3.94241 136.274 3.75936C136.384 4.03394 136.98 4.03394 137.577 4.03394C137.601 3.94241 137.546 3.80512 137.727 3.80512C137.86 3.94241 138.33 4.07971 138.013 3.80512C138.35 3.80512 138.173 4.03394 138.46 4.07971C138.505 3.80512 139.111 4.217 139.028 3.98818C138.95 3.98818 138.87 3.89665 139.026 3.89665C139.311 3.89665 139.313 3.98818 139.471 4.07971C139.619 3.75936 140.329 4.17123 140.765 3.94241L140.769 4.12547C141.237 4.217 140.97 3.85089 141.334 3.89665C141.467 4.03394 140.899 4.17123 141.341 4.217C142.088 3.98818 142.972 4.07971 144.091 4.26276C144.214 3.94241 144.654 3.94241 144.971 4.17123C145.094 3.89665 145.306 4.07971 145.541 4.17123C145.695 4.07971 145.769 3.89665 145.975 3.85089C146.136 4.07971 145.542 4.217 146.112 4.17123C146.58 4.217 145.744 3.94241 146.262 3.94241C146.471 3.98818 146.526 4.12547 146.555 4.26276C145.987 4.40005 145.552 4.62887 145.116 4.8577C145.114 4.76617 144.699 4.76617 144.675 4.8577C144.857 4.8577 144.862 5.08652 144.681 5.13228C144.753 4.8577 144.363 4.81193 144.67 4.62887C144.074 4.67464 144.059 5.13228 143.957 5.22381C143.358 5.08652 144.31 4.76617 143.948 4.81193C143.796 4.99499 143.146 4.90346 142.942 5.04075C143.045 5.04075 143.149 5.04075 143.227 5.04075C143.59 5.04075 143.391 5.40686 143.959 5.31534C143.987 5.40686 143.938 5.54416 144.121 5.58992C144.038 5.3611 144.927 5.68145 144.843 5.40686C144.506 5.40686 144.89 5.17804 145.124 5.22381C145.152 5.31534 144.92 5.3611 145.128 5.40686C145.54 5.26957 144.861 5.04075 145.275 4.99499C145.257 5.3611 145.508 4.99499 145.715 4.99499C145.876 5.22381 145.283 5.3611 145.878 5.31534C146.059 5.26957 146.231 4.8577 146.445 5.13228C146.263 5.13228 146.107 5.13228 146.163 5.31534C146.864 5.31534 146.349 5.49839 146.46 5.81874C146.745 5.81874 146.77 5.77298 146.612 5.63568C146.899 5.72721 147.433 5.26957 147.623 5.63568C147.441 5.63568 147.413 5.54416 147.18 5.54416C147.29 5.81874 147.161 5.86451 147.319 5.95603C147.468 5.68145 147.55 5.86451 147.76 5.95603C147.785 5.91027 147.756 5.77298 147.911 5.77298C148.099 6.04756 148.431 5.81874 148.799 6.04756C148.385 6.09333 148.359 6.09333 147.917 6.04756C148.028 6.36791 147.377 6.23062 147.356 6.45944C147.772 6.5052 147.846 6.32215 148.077 6.23062C148.545 6.27638 148.75 6.18485 149.087 6.18485C148.978 5.91027 149.236 5.8645 149.232 5.68145C149.128 5.68145 148.946 5.68145 148.944 5.58992H149.385C149.546 5.81874 148.954 6.0018 149.397 6.09333C149.495 5.8645 149.752 5.77298 149.965 6.0018C149.906 5.68145 150.873 6.0018 150.971 5.77298C150.868 5.77298 150.788 5.68145 150.812 5.58992C151.154 5.81874 151.04 5.3611 151.691 5.49839C151.551 5.04075 151.911 4.90346 152.56 4.90346C152.604 4.58311 151.958 4.67464 152.105 4.30853C152.963 4.40005 153.233 3.71359 154.123 4.07971C154.405 3.94241 154.014 3.85089 154.112 3.5763C154.836 3.48477 155.402 3.30172 155.994 3.11866C156.04 2.84408 155.547 2.84408 155.415 2.70678C156.577 2.47796 157.423 2.06609 157.718 1.33386C157.431 1.2881 157.435 1.42539 157.281 1.51692C156.969 1.47115 156.81 1.33386 156.549 1.24233C156.501 1.42539 156.004 1.24233 155.976 1.1508C155.997 0.921984 156.595 1.01351 156.563 0.738928C156.148 0.738928 155.603 0.693164 155.397 0.784692C155.491 0.327051 154.776 0.830456 154.819 0.418579C154.303 0.555871 153.812 0.647399 153.376 0.830456C152.285 0.784692 151.906 1.19657 151.341 1.47115C150.562 1.42539 150.724 1.69997 150.046 1.51692C149.815 1.65421 149.479 1.69997 149.169 1.74574C149.166 1.60845 149.087 1.56268 149.007 1.47115C149.107 1.2881 150.021 1.56268 149.884 1.24233C149.183 1.19657 147.996 1.47115 146.825 1.2881C146.622 1.47115 146.181 1.47115 145.819 1.51692C145.481 1.47115 144.803 1.33386 144.522 1.51692C143.997 1.24233 143.15 1.60845 142.91 1.33386C142.886 1.42539 142.758 1.47115 142.629 1.51692C142.34 1.33386 141.929 1.51692 141.62 1.60845C141.018 1.37962 139.468 1.65421 138.867 1.42539C138.121 1.69997 137.595 1.37962 137.134 1.65421C135.029 1.42539 133.759 1.47115 131.323 1.56268C131.295 1.47115 131.267 1.37962 131.034 1.37962C131.01 1.47115 131.065 1.60845 130.884 1.60845C130.568 1.42539 130.109 1.74574 129.719 1.69997C129.641 1.69997 129.558 1.47115 129.274 1.51692C128.886 1.56268 128.34 1.51692 127.821 1.51692C127.277 1.51692 126.711 1.74574 126.367 1.42539C126.241 1.56268 125.852 1.56268 125.647 1.69997C125.593 1.60845 125.461 1.51692 125.202 1.51692C123.885 1.74574 122.74 1.56268 121.702 1.56268C120.976 1.56268 120.253 1.69997 119.678 1.51692C119.656 1.65421 119.423 1.69997 119.112 1.69997C118.722 1.65421 118.666 1.47115 118.225 1.47115C118.281 1.65421 118.206 1.7915 117.947 1.7915C117.708 1.51692 116.569 1.60845 116.34 1.83727C116.286 1.74574 116.155 1.65421 115.895 1.65421C115.714 1.65421 115.69 1.74574 115.457 1.74574C114.882 1.56268 113.85 1.7915 113.281 1.88303C113.254 1.83727 113.277 1.69997 113.122 1.69997C113.072 1.7915 112.944 1.88303 112.685 1.88303C111.748 1.74574 111.458 1.51692 110.505 1.83727C110.372 1.65421 109.957 1.65421 109.491 1.69997C109.494 1.83727 109.392 1.92879 109.212 1.97456C108.924 1.83727 109.181 1.74574 109.203 1.56268C108.94 1.42539 108.479 1.65421 108.195 1.74574C108.407 1.92879 108.633 1.60845 108.768 1.83727C108.485 1.92879 108.097 1.97456 107.761 2.02032C107.074 1.47115 105.902 2.38643 105.137 1.83727C104.783 2.20338 104.389 2.02032 103.975 2.02032C103.378 2.02032 102.812 2.20338 102.085 2.15761L102.08 1.97456C101.665 1.97456 101.826 2.20338 101.516 2.24914C101.232 2.29491 101.203 2.15761 100.943 2.15761C100.92 2.24914 100.896 2.34067 100.662 2.34067C99.1759 1.97456 96.8844 2.70678 94.9851 2.4322C94.8056 2.52373 94.4426 2.52373 94.2631 2.61526C93.4592 2.61526 92.9166 2.70678 92.371 2.66102C91.8513 2.61526 91.5692 2.75255 90.9198 2.70678C90.5609 2.88984 90.6117 2.84408 90.0402 2.79831C90.0712 3.02713 89.6833 3.0729 89.3202 3.0729C89.3182 2.98137 89.4987 2.9356 89.4696 2.79831C88.8473 2.79831 88.5391 2.9356 88.0225 3.02713C87.7083 2.88984 86.9593 3.02713 86.4147 3.02713C85.8763 3.30172 85.589 3.21019 84.9717 3.43901C84.9687 3.30172 85.0454 3.25595 85.1212 3.16442C84.393 3.0729 84.5578 3.48477 84.118 3.53054C83.6771 3.53054 82.9801 3.66783 82.9479 3.39324C83.0506 3.34748 83.2332 3.39324 83.2312 3.30172C82.4552 3.39324 81.5476 3.39324 80.9034 3.5763C81.2664 3.5763 80.9355 3.85089 80.7539 3.85089C80.1087 3.98818 80.3588 3.5763 79.8671 3.62206C79.8183 3.75936 80.0797 3.85089 79.8733 3.89665C79.6139 3.89665 79.1492 3.98818 79.2737 3.75936C78.6773 3.75936 78.6036 3.94241 78.1078 3.80512C77.8587 4.26276 76.5102 4.26276 75.4968 4.17123C75.0559 4.17123 74.6721 4.40005 74.3308 4.217C74.4407 4.49158 74.0227 4.35429 73.892 4.30853C73.8671 4.35429 73.8962 4.49158 73.7406 4.49158C71.669 4.62887 70.168 4.76617 68.5394 4.99499C68.4844 4.8577 68.3548 4.85769 68.5332 4.7204C68.1183 4.7204 68.2023 4.99499 67.8133 4.99499L66.9326 5.04075C66.9305 4.94922 67.111 4.90346 67.0561 4.76617C66.305 4.81193 67.0363 5.04075 66.4938 5.13228C64.8849 5.08652 64.4513 5.40686 63.1567 5.49839C63.0727 5.22381 62.6827 5.17804 62.2667 5.13228C62.2511 5.58992 60.8818 5.81874 60.3839 5.58992C60.4586 5.45263 60.9534 5.54416 60.9503 5.40686C60.3269 5.3611 60.2812 5.63568 59.9461 5.72721C59.7574 5.40686 59.636 5.77298 59.2211 5.77298C58.7522 5.68145 58.3144 5.81874 58.0592 6.0018C57.8518 6.0018 57.8736 5.81874 57.7688 5.77298C57.0717 5.91027 56.5831 6.09333 55.886 6.23062L55.8798 5.95603C55.467 6.04756 55.441 6.04756 54.9992 6.0018C54.9234 6.09333 54.8477 6.18485 54.7201 6.27638C54.1994 6.18485 53.274 6.55097 52.9815 6.23062C52.5427 6.32215 51.9463 6.32215 51.2471 6.36791C50.2378 6.45944 49.58 7.19166 48.7907 6.68826C48.7668 6.77979 48.8218 6.91708 48.6672 6.96284C48.3291 6.91708 47.6081 7.1459 47.5002 6.96284C46.9608 7.19166 46.8031 7.10013 46.0542 7.23743C46.0511 7.10013 45.9723 7.05437 45.8934 7.00861C44.963 7.1459 44.1559 7.00861 42.9962 7.32896C42.6809 7.1459 42.5055 7.42048 41.9868 7.42048C41.3562 7.05437 40.9837 7.7866 39.9713 7.74083C39.9682 7.60354 40.019 7.55778 40.0948 7.46625C39.2929 7.55778 38.5812 8.19847 38.0772 7.69507C39.2773 8.01542 37.4723 8.47306 36.7451 8.42729ZM152.416 5.45263C152.392 5.54416 152.133 5.54416 151.952 5.54416C151.974 5.40686 152.235 5.45263 152.416 5.45263ZM147.547 5.72721C147.73 5.77298 147.861 5.8645 147.865 6.0018C147.656 5.95603 147.524 5.86451 147.547 5.72721ZM145.838 4.67464C145.682 4.67464 145.705 4.53735 145.678 4.49158C145.834 4.49158 145.784 4.58311 145.838 4.67464ZM136.605 4.62887C136.603 4.53735 136.784 4.53735 136.914 4.53735C136.916 4.62887 136.708 4.62887 136.605 4.62887ZM76.3019 8.83917C76.2616 8.19847 76.6277 8.33577 77.2999 8.24424C77.3289 8.38153 77.0976 8.47306 77.3061 8.51882C77.3102 8.70188 76.8123 8.47306 76.6567 8.47306C76.3445 8.42729 76.8226 8.9307 76.3019 8.83917ZM69.6464 9.25105C69.5178 9.29681 69.3643 9.38834 69.3352 9.25105C69.3591 9.15952 69.6184 9.15952 69.6464 9.25105ZM53.8842 10.624L53.8904 10.8986C53.4526 11.0358 53.4403 10.4867 53.8842 10.624ZM48.1446 11.402C48.4807 11.3562 48.4319 11.4935 48.461 11.6308C48.2794 11.6308 48.1487 11.585 48.1446 11.402ZM43.2878 12.2257C43.8013 11.9969 43.1622 12.4088 43.1363 12.4088C43.2141 12.4088 42.9776 12.2715 42.9786 12.3172C43.0025 12.2257 43.1591 12.2715 43.2878 12.2257ZM42.0792 12.6834C41.8178 12.5918 41.4537 12.5461 41.4476 12.2715C41.8625 12.2715 42.1747 12.3172 42.0792 12.6834ZM51.4653 10.3036C51.6209 10.3036 51.597 10.3951 51.625 10.4867C51.4684 10.4409 51.4922 10.3494 51.4653 10.3036ZM45.778 8.79341C46.2188 8.79341 45.5487 8.97646 45.6285 9.06799C45.1089 9.02223 45.806 8.88493 45.778 8.79341ZM20.6672 11.9054C20.6392 11.8138 20.689 11.7223 20.8187 11.7223C20.8466 11.8138 20.7709 11.9054 20.6672 11.9054ZM17.3019 13.3241C17.2531 13.4613 17.1255 13.5529 16.8402 13.5529C16.7583 13.3698 17.0425 13.3241 17.3019 13.3241ZM10.3714 14.1936C10.6048 14.1936 11.2085 14.5139 10.5352 14.5597C10.5073 14.4682 10.5851 14.4682 10.6888 14.4682C10.6089 14.3766 10.3496 14.3766 10.3714 14.1936ZM103.065 3.0729C102.986 3.02713 103.165 2.9356 103.218 2.98137C103.323 3.02713 103.116 3.0729 103.065 3.0729ZM105.714 3.25595C105.716 3.34748 105.534 3.34748 105.405 3.34748C105.403 3.25595 105.585 3.30172 105.714 3.25595ZM103.665 3.25595C104.261 3.21019 103.67 3.48477 103.672 3.5763C104.373 3.5763 104.295 3.5763 104.968 3.53054C105.098 3.53054 105.07 3.43901 105.119 3.34748C105.303 3.43901 105.666 3.43901 105.846 3.34748C105.714 3.25595 105.659 3.11866 105.681 2.9356C106.121 2.88984 106.334 3.16442 106.247 2.75255C106.584 2.75255 106.922 2.79831 106.825 3.0729C107.367 2.98137 107.778 2.79831 108.12 3.02713C108.275 2.98137 108.272 2.84408 108.557 2.84408C108.741 2.9356 109.001 2.98137 108.72 3.16442C109.288 3.0729 109.226 2.61526 110.005 2.66102C110.061 2.84408 109.75 2.84408 109.885 3.0729C109.986 2.9356 110.349 2.9356 110.319 2.75255C111.255 2.88984 111.203 2.88984 112.344 2.88984C112.611 3.21019 112.917 2.98137 113.235 3.30172C113.364 3.25595 113.467 3.21019 113.674 3.21019C114.168 3.25595 113.742 2.75255 114.104 2.70678C114.594 2.61526 114.343 2.98137 114.398 3.11866C114.676 2.79831 115.664 2.88984 116.283 2.75255C116.416 2.88984 116.394 3.0729 116.859 2.98137C116.892 3.30172 116.73 3.02713 116.42 3.0729C116.526 3.16442 116.734 3.21019 116.994 3.21019C117.279 3.21019 117.091 2.9356 117.428 2.9356C117.475 2.70678 116.863 3.16442 116.984 2.79831C117.684 2.75255 117.708 2.70678 118.59 2.70678C118.541 2.84408 118.724 2.88984 118.748 2.79831C119.32 2.88984 118.7 2.98137 118.757 3.21019C120.097 2.84408 121.578 2.9356 123.391 2.84408C123.676 2.84408 123.99 2.98137 124.272 2.84408C124.2 3.0729 125.048 2.75255 125.002 2.98137C125.284 2.84408 125.102 2.84408 125.57 2.88984C125.7 2.88984 125.672 2.79831 125.722 2.70678C126.399 2.84408 126.706 2.66102 127.46 2.75255C127.823 2.75255 127.25 2.61526 127.453 2.4322C127.842 2.4322 128.234 2.56949 127.901 2.75255C128.262 2.66102 128.754 2.61525 129.194 2.56949C129.149 2.88984 130.103 2.66102 130.494 2.75255C130.418 2.79831 130.342 2.88984 130.344 2.98137C130.375 3.21019 130.6 2.84408 130.914 2.98137C130.938 2.88984 131.037 2.66102 131.791 2.75255C131.684 2.61526 131.349 2.70678 131.63 2.52373C132.199 2.4322 131.998 2.75255 132.361 2.75255C132.674 2.79831 132.644 2.61526 132.642 2.52373C132.849 2.52373 133.245 2.84408 133.37 2.61526C133.578 2.66102 133.346 2.70678 133.374 2.79831C133.945 2.84408 134.067 2.47796 134.385 2.79831C134.646 2.84408 134.669 2.75255 134.666 2.61526C135.037 2.9356 135.34 2.56949 135.837 2.79831C135.993 2.79831 135.913 2.70678 135.835 2.70678C135.936 2.56949 136.172 2.66102 136.123 2.79831C136.381 2.75255 136.718 2.75255 136.845 2.61526C136.739 2.52373 136.457 2.66102 136.117 2.52373C136.268 2.34067 137.075 2.47796 137.13 2.61526C137.286 2.61526 137.206 2.52373 137.128 2.52373C137.279 2.34067 138.318 2.38643 138.143 2.70678C138.323 2.61526 138.843 2.66102 138.864 2.47796C139.203 2.52373 138.714 2.70678 138.716 2.79831C139.002 2.84408 139.183 2.79831 139.153 2.61526C139.596 2.70678 139.082 2.9356 138.875 2.9356C139.087 3.16442 139.371 3.0729 139.758 3.02713C139.68 2.98137 139.6 2.88984 139.598 2.79831C140.064 2.75255 140.452 2.75255 141.204 2.70678C141.878 2.70678 142.133 2.52373 142.373 2.79831C142.676 2.4322 144.162 2.79831 144.701 2.56949C144.81 2.79831 145.226 2.84408 145.283 3.0729C146.11 2.9356 147.153 3.21019 148.031 3.02713C148.078 2.79831 147.466 3.25595 147.586 2.84408C148.029 2.9356 148.183 2.84408 148.883 2.84408C149.018 3.0729 148.68 3.0729 148.736 3.25595C146.435 3.53054 144.59 3.39324 142.359 3.34748C141.917 3.30172 142.079 3.5763 141.636 3.48477L141.631 3.25595C141.426 3.39324 141.035 3.30172 140.903 3.16442C140.413 3.30172 139.947 3.34748 139.608 3.25595C139.478 3.25595 139.506 3.34748 139.457 3.43901C138.494 3.30172 137.457 3.30172 136.708 3.43901C135.306 3.39324 134.764 3.48477 133.648 3.43901C133.285 3.43901 133.132 3.5763 132.927 3.66783C132.795 3.5763 132.381 3.62206 132.481 3.43901C131.835 3.5763 131.157 3.39324 130.017 3.43901C129.785 3.48477 130.15 3.5763 129.866 3.62206C129.607 3.66783 129.579 3.5763 129.576 3.43901C126.128 3.48477 123.353 3.48477 121.021 3.5763C120.918 3.5763 120.864 3.48477 120.734 3.48477C119.905 3.53054 118.817 3.5763 117.832 3.5763C117.598 3.5763 117.544 3.48477 117.389 3.48477C117.208 3.53054 117.057 3.71359 116.822 3.66783L116.818 3.48477C114.954 3.62206 113.422 3.53054 110.858 3.66783C110.623 3.62206 110.601 3.75936 110.577 3.85089C110.392 3.71359 110.029 3.71359 109.845 3.62206C108.398 3.85089 106.321 3.71359 104.611 3.80512C104.275 3.85089 104.796 3.94241 104.461 4.03394C103.892 4.12547 103.938 3.85089 103.574 3.80512L101.396 3.85089C101.034 3.89665 100.492 3.98818 100.104 4.03394C99.8965 4.03394 99.5303 3.89665 99.6651 4.12547C99.1652 3.80512 98.4204 4.12547 97.9307 4.26276L97.9266 4.07971C96.8364 4.03394 95.0003 4.26276 94.0138 4.217C93.8323 4.217 93.8873 4.35429 93.8903 4.49158C93.3416 4.30853 92.6684 4.35429 92.2856 4.62887C91.8717 4.67464 91.9433 4.40005 91.5543 4.40005C90.7784 4.49158 90.211 4.62887 89.5347 4.53735C89.2753 4.53735 89.1737 4.62887 89.0979 4.7204C88.9112 4.49158 88.628 4.58311 88.2152 4.67464C88.2339 4.35429 88.8573 4.40005 89.2224 4.49158C89.2692 4.26276 88.9071 4.30853 88.6208 4.26276C88.3615 4.26276 88.3376 4.35429 88.3397 4.44582C87.6115 4.35429 87.6167 4.58311 87.1738 4.49158C86.6862 4.7204 85.682 5.04075 84.874 4.8577C84.8978 4.76617 85.1312 4.76617 85.3128 4.76617C85.6997 4.67464 84.8678 4.58311 85.3056 4.44582C85.6106 4.17123 86.2682 4.58311 86.3118 4.217C87.1478 4.49158 88.3304 4.03394 89.208 3.85089C89.4746 4.17123 90.2163 3.71359 90.5098 4.07971C90.6333 3.80512 92.0067 3.75936 91.8095 4.217C92.0429 4.217 92.3531 4.17123 92.3811 4.26276C92.5875 4.217 92.5056 4.03394 92.5295 3.94241C92.7162 4.17123 93.0823 4.30853 93.546 4.17123C93.7214 3.89665 93.0782 4.12547 93.2536 3.85089C93.794 3.66783 93.962 4.217 93.9786 3.80512C94.4205 3.85089 94.684 4.03394 95.1518 4.07971C95.5885 3.89665 96.6289 4.03394 97.0397 3.85089C96.934 3.75936 96.7006 3.75936 96.7493 3.62206C97.656 3.5763 97.8634 3.5763 98.769 3.48477C98.5895 3.5763 98.7202 3.62206 98.7742 3.71359C99.0864 3.75936 99.7306 3.5763 99.7866 3.75936C99.9681 3.75936 99.9131 3.62206 99.937 3.53054C100.119 3.53054 100.844 3.48477 100.376 3.43901C100.425 3.30172 100.635 3.43901 100.663 3.53054C100.766 3.48477 101.049 3.39324 101.104 3.53054C101.284 3.48477 101.64 3.16442 101.828 3.43901C102.163 3.34748 102.289 3.16442 102.833 3.16442C102.917 3.43901 102.633 3.48477 102.559 3.66783C102.973 3.62206 102.732 3.25595 103.277 3.30172C103.202 3.43901 103.075 3.53054 102.999 3.62206C103.778 3.66783 103.435 3.39324 103.665 3.25595ZM140.084 2.52373C140.009 2.61526 139.881 2.70678 139.622 2.70678C139.696 2.56949 139.825 2.52373 140.084 2.52373ZM141.21 2.98137C141.131 2.9356 141.31 2.84408 141.363 2.88984C141.442 2.9356 141.263 3.02713 141.21 2.98137ZM151.061 2.84408C150.982 2.79831 151.163 2.75255 151.215 2.75255C151.293 2.79831 151.114 2.88984 151.061 2.84408ZM97.6249 3.34748C97.6488 3.25595 97.7795 3.30172 97.7805 3.34748C97.7576 3.48477 97.6259 3.39324 97.6249 3.34748ZM98.5066 3.34748C99.0045 3.5763 98.0855 3.0729 98.5066 3.34748ZM101.779 3.5763C101.777 3.48477 101.959 3.48477 102.088 3.48477C102.09 3.5763 101.909 3.5763 101.779 3.5763ZM113.444 3.34748C113.442 3.25595 113.623 3.25595 113.753 3.25595C113.754 3.30172 113.573 3.30172 113.444 3.34748ZM130.582 3.21019C130.504 3.16442 130.683 3.0729 130.736 3.11866C130.815 3.16442 130.634 3.21019 130.582 3.21019ZM149.764 2.84408H150.542C150.655 3.25595 149.771 3.11866 149.764 2.84408ZM104.655 3.43901C104.576 3.39324 104.755 3.30172 104.808 3.34748C104.887 3.39324 104.681 3.43901 104.655 3.43901ZM147.176 3.0729C147.097 3.02713 147.277 2.9356 147.33 2.98137C147.435 3.02713 147.229 3.11866 147.176 3.0729ZM99.7337 3.71359C99.6548 3.66783 99.8343 3.5763 99.8872 3.62206C99.966 3.66783 99.7866 3.75936 99.7337 3.71359ZM90.1416 3.85089C90.0628 3.80512 90.2423 3.71359 90.2952 3.75936C90.374 3.80512 90.1686 3.89665 90.1416 3.85089ZM98.9567 3.75936C98.8779 3.71359 99.0574 3.62206 99.1103 3.66783C99.1891 3.71359 99.0096 3.80512 98.9567 3.75936ZM149.026 3.43901C148.947 3.39324 149.127 3.34748 149.179 3.34748C149.258 3.39324 149.052 3.43901 149.026 3.43901ZM95.3313 3.98818C95.2524 3.94241 95.4319 3.85089 95.4848 3.89665C95.5636 3.94241 95.3842 4.03394 95.3313 3.98818ZM3.75509 10.5782C3.67626 10.5324 3.85573 10.4409 3.90863 10.4867C3.98745 10.5324 3.80695 10.5782 3.75509 10.5782ZM6.93968 10.3494C7.42623 10.0748 6.58382 10.6697 6.93968 10.3494ZM94.8136 4.03394C94.7348 3.98818 94.9143 3.89665 94.9672 3.94241C95.046 3.98818 94.8655 4.03394 94.8136 4.03394ZM7.38054 10.3494C7.30171 10.3036 7.48118 10.2121 7.53407 10.2579C7.6129 10.3036 7.4075 10.3951 7.38054 10.3494ZM83.9114 4.7204C83.9663 4.85769 83.8117 4.90346 83.6561 4.90346C83.8148 5.04075 83.8169 5.13228 83.5327 5.17804C83.5347 5.26957 83.7152 5.22381 83.82 5.26957C83.5409 5.54416 83.2317 5.63568 82.8697 5.68145L82.8656 5.49839C82.8397 5.49839 82.0938 5.77298 81.9092 5.63568C81.9559 5.40686 82.3439 5.3611 82.1541 4.99499C83.0638 5.08652 83.2569 4.44582 83.9114 4.7204ZM93.0004 4.12547C92.9216 4.07971 93.101 3.98818 93.1539 4.03394C93.2328 4.07971 93.0533 4.17123 93.0004 4.12547ZM140.211 3.53054C140.132 3.48477 140.311 3.39324 140.364 3.43901C140.443 3.48477 140.237 3.53054 140.211 3.53054ZM14.5952 9.4341C14.5164 9.38834 14.6959 9.29681 14.7488 9.34258C14.8276 9.38834 14.6481 9.47987 14.5952 9.4341ZM18.48 9.20528C18.4012 9.15952 18.5806 9.06799 18.6335 9.11375C18.7124 9.15952 18.5329 9.25105 18.48 9.20528ZM135.651 3.71359C135.807 3.75936 135.811 3.94241 136.122 3.89665C135.972 4.17123 135.213 3.85089 135.651 3.71359ZM137.854 3.66783C137.852 3.5763 138.033 3.5763 138.163 3.5763C138.165 3.66783 137.982 3.62206 137.854 3.66783ZM80.8295 4.90346C80.8274 4.81193 81.0089 4.81193 81.1386 4.81193C81.1137 4.8577 80.9322 4.8577 80.8295 4.90346ZM135.264 3.80512C135.288 3.71359 135.418 3.75936 135.419 3.80512C135.395 3.89665 135.265 3.85089 135.264 3.80512ZM81.4488 4.76617C81.6573 4.81193 81.3232 4.94922 81.5826 4.94922C81.43 5.08652 81.069 5.17804 80.8855 5.08652C80.3699 5.22381 79.7526 5.45263 79.51 5.04075C80.0784 4.94922 80.4705 5.08652 80.4644 4.81193C80.9332 4.90346 81.0929 5.08652 81.4488 4.76617ZM138.926 4.07971C138.848 4.03394 139.027 3.94241 139.08 3.98818C139.159 4.03394 138.978 4.07971 138.926 4.07971ZM142.007 3.85089C142.005 3.75936 142.188 3.80512 142.316 3.75936C142.318 3.85089 142.136 3.80512 142.007 3.85089ZM20.0339 9.11375C19.9551 9.06799 20.1345 8.97646 20.1874 9.02223C20.2663 9.06799 20.0858 9.11375 20.0339 9.11375ZM72.1169 6.09333C72.1449 6.18485 72.4032 6.13909 72.4062 6.27638C72.5867 6.23062 72.5577 6.09333 72.4021 6.09333C72.5277 5.91027 72.9955 5.95603 72.8327 5.63568L73.5578 5.58992L73.564 5.8645C74.1096 5.91027 74.287 5.72721 74.2808 5.45263C74.5692 5.58992 75.2652 5.40686 75.4509 5.58992C75.7829 5.3611 76.481 5.26957 76.8969 5.31534C76.9383 6.0018 75.5567 5.68145 75.3056 6.04756C74.9913 5.91027 74.3928 5.81874 74.2713 6.18485C73.7298 6.32215 73.8513 5.95603 73.3865 6.04756C73.3439 6.45944 73.7776 6.13909 73.8336 6.32215C73.9964 6.64249 73.2661 6.45944 72.957 6.55097C73.0327 6.45944 73.1095 6.41367 73.1064 6.27638C72.9788 6.36791 72.7724 6.41367 72.5131 6.41367C72.5929 6.5052 72.6717 6.55097 72.6748 6.68826C71.8968 6.68826 71.2247 6.77979 70.6303 6.87131C70.3897 6.55097 71.2775 6.82555 71.0629 6.5052C71.2693 6.45944 71.817 6.59673 71.7859 6.36791C71.7289 6.13909 71.5297 6.5052 71.1905 6.41367C70.8534 6.41367 70.5909 6.27638 70.3098 6.45944C70.3658 6.64249 70.6957 6.32215 70.9073 6.5052C70.2921 6.82555 69.481 6.5052 69.1397 6.32215C69.1056 5.95603 69.8607 6.09333 70.0101 5.81874C70.2705 5.8645 70.4831 6.09333 70.6056 5.77298C70.9458 5.91027 70.8949 5.95603 71.3327 5.81874C71.7476 5.81874 71.4541 5.45263 71.7653 5.45263C72.2321 5.45263 71.8763 5.77298 72.371 5.8645C72.425 5.95603 72.2974 6.04756 72.1169 6.09333ZM130.37 4.12547C130.291 4.07971 130.47 3.98818 130.523 4.03394C130.602 4.07971 130.422 4.17123 130.37 4.12547ZM137.267 4.07971C137.526 4.07971 137.58 4.17123 137.865 4.17123C137.903 4.7204 137.297 4.26276 137.281 4.7204C136.969 4.67464 137.138 4.12547 137.267 4.07971ZM138.561 3.98818C138.716 3.94241 138.679 4.62887 138.565 4.17123C138.411 4.217 138.282 4.26276 138.312 4.44582C138.183 4.44582 138.206 4.35429 138.178 4.26276C138.075 4.26276 138.05 4.30853 138.051 4.35429C137.947 4.35429 137.92 4.30853 137.919 4.26276L137.915 4.07971C138.07 4.03394 138.565 4.17123 138.561 3.98818ZM145.411 4.12547C145.332 4.07971 145.511 3.98818 145.564 4.03394C145.643 4.07971 145.462 4.12547 145.411 4.12547ZM145.669 4.07971C145.59 4.03394 145.77 3.94241 145.822 3.98818C145.902 4.07971 145.722 4.12547 145.669 4.07971ZM146.705 4.03394C146.626 3.98818 146.806 3.89665 146.859 3.94241C146.938 3.98818 146.758 4.07971 146.705 4.03394ZM16.9353 9.70869C16.9592 9.61716 17.0899 9.66292 17.0909 9.70869C17.0671 9.80022 16.9364 9.75445 16.9353 9.70869ZM87.572 4.90346C87.5948 4.76617 87.8811 4.81193 87.8832 4.90346C87.8085 5.04075 87.7276 4.90346 87.572 4.90346ZM133.477 3.94241C133.399 3.89665 133.578 3.80512 133.631 3.85089C133.71 3.89665 133.503 3.94241 133.477 3.94241ZM134.782 4.30853C134.703 4.26276 134.883 4.17123 134.936 4.217C135.015 4.26276 134.835 4.35429 134.782 4.30853ZM135.531 4.17123C135.867 4.12547 135.82 4.30853 135.849 4.44582C135.719 4.44582 135.691 4.35429 135.535 4.35429L135.531 4.17123ZM136.049 4.12547C136.491 4.17123 136.753 4.30853 136.837 4.58311C136.498 4.49158 136.133 4.40005 136.049 4.12547ZM140.739 3.94241C140.66 3.89665 140.84 3.85089 140.892 3.85089C140.971 3.89665 140.791 3.98818 140.739 3.94241ZM79.0265 5.45263C79.0494 5.31534 79.3357 5.3611 79.3377 5.45263C79.263 5.58992 79.2081 5.45263 79.0265 5.45263ZM83.9735 5.17804C83.8947 5.13228 84.0742 5.04075 84.1271 5.08652C84.2049 5.08652 83.9994 5.17804 83.9735 5.17804ZM146.42 4.03394C146.444 3.94241 146.574 3.98818 146.576 4.03394C146.552 4.12547 146.421 4.07971 146.42 4.03394ZM93.3062 5.04075C93.2274 4.99499 93.4069 4.90346 93.4598 4.94922C93.5386 4.99499 93.3332 5.08652 93.3062 5.04075ZM100.04 4.62887C99.9607 4.58311 100.14 4.49158 100.193 4.53735C100.272 4.58311 100.065 4.62887 100.04 4.62887ZM78.1998 5.58992C78.2236 5.49839 78.1458 5.49839 78.0421 5.49839C78.4758 5.17804 78.4134 5.8645 77.735 5.68145C77.7589 5.58992 78.0193 5.63568 78.1998 5.58992ZM110.926 4.40005C110.847 4.35429 111.028 4.30853 111.08 4.30853C111.159 4.35429 110.953 4.44582 110.926 4.40005ZM139.972 4.44582C139.893 4.40005 140.074 4.35429 140.125 4.35429C140.204 4.40005 140.025 4.49158 139.972 4.44582ZM140.749 4.40005C140.82 4.12547 140.985 4.53735 141.218 4.49158C141.069 4.81193 140.904 4.40005 140.749 4.40005ZM19.0089 9.66292C19.0069 9.5714 19.1884 9.5714 19.317 9.52563C19.2932 9.61716 19.1116 9.61716 19.0089 9.66292ZM80.3481 5.40686C80.2692 5.3611 80.4487 5.26957 80.5016 5.31534C80.5794 5.31534 80.374 5.40686 80.3481 5.40686ZM121.565 4.67464C121.486 4.62887 121.665 4.53735 121.718 4.58311C121.797 4.62887 121.618 4.7204 121.565 4.67464ZM127.236 4.30853C127.26 4.217 127.39 4.26276 127.391 4.30853C127.368 4.40005 127.237 4.35429 127.236 4.30853ZM132.193 4.49158C132.114 4.44582 132.294 4.35429 132.347 4.40005C132.425 4.44582 132.245 4.49158 132.193 4.49158ZM135.3 4.26276C135.221 4.217 135.401 4.12547 135.453 4.17123C135.532 4.217 135.353 4.30853 135.3 4.26276ZM139.194 4.44582C139.218 4.35429 139.348 4.40005 139.35 4.44582C139.301 4.58311 139.196 4.53735 139.194 4.44582ZM141.266 4.35429C141.188 4.30853 141.367 4.217 141.42 4.26276C141.499 4.30853 141.319 4.40005 141.266 4.35429ZM142.82 4.26276C142.895 4.12547 142.95 4.26276 143.132 4.26276C143.082 4.35429 142.822 4.35429 142.82 4.26276ZM143.634 4.67464C143.555 4.62887 143.734 4.53735 143.787 4.58311C143.866 4.62887 143.661 4.7204 143.634 4.67464ZM144.385 4.62887C144.407 4.49158 144.694 4.53735 144.696 4.62887C144.541 4.67464 144.413 4.7204 144.385 4.62887ZM145.447 4.58311C145.368 4.53735 145.547 4.44582 145.6 4.49158C145.679 4.53735 145.473 4.58311 145.447 4.58311ZM16.1956 10.2579C16.1168 10.2121 16.2963 10.1206 16.3492 10.1663C16.428 10.2121 16.2485 10.3036 16.1956 10.2579ZM67.4053 6.45944C67.4084 6.59673 67.5142 6.68826 67.6957 6.68826C67.7943 6.45944 68.3659 6.5052 68.4126 6.27638C68.7777 6.36791 67.9779 6.55097 67.982 6.73402C68.5464 6.45944 68.8067 6.5052 69.426 6.36791C69.483 6.59673 69.1708 6.55097 69.3067 6.82555C68.6314 6.77979 68.1718 7.10014 67.7009 6.91708C67.316 7.10014 65.8989 7.51201 65.9374 6.91708L65.4976 6.96284C65.3212 7.19166 65.066 7.37472 64.7838 7.51201C64.2901 7.46625 64.703 7.37472 64.619 7.10014C63.9178 7.05437 63.7943 7.32896 63.6189 7.60354C61.9913 7.87812 60.2009 7.83236 58.5204 8.06118C58.2601 8.01542 57.6688 8.24424 57.6377 8.01542C57.2528 8.19847 56.4769 8.29 56.0319 8.10694C55.3857 8.19847 55.2113 8.51882 54.592 8.65611C54.7155 8.38153 54.1232 8.56459 53.9904 8.42729C53.4489 8.56459 52.8276 8.61035 52.3908 8.79341C52.5423 8.61035 52.8764 8.47306 52.949 8.24424C53.5206 8.29 53.8785 8.06118 54.1139 8.15271C54.1648 8.10694 54.81 7.96965 54.3951 7.96965C54.4439 7.83236 54.6534 7.92389 54.6814 8.01542C55.1959 7.83236 55.3525 7.87812 55.8432 7.7866C56.1264 7.69507 56.0673 7.37472 56.5601 7.37472C56.5621 7.46625 56.3806 7.46625 56.2769 7.46625C56.6938 7.55778 57.1357 7.60354 57.3224 7.83236C57.84 7.7866 56.9521 7.51201 57.4438 7.46625C57.3899 7.37472 57.0207 7.10014 56.9999 7.32896C56.7655 7.28319 57.0227 7.19166 56.8371 7.00861C57.1452 6.87131 58.1794 6.73402 58.2893 7.00861C58.5933 6.68826 59.6255 6.45944 60.1762 6.73402C60.7188 6.64249 61.2613 6.55097 61.3473 6.91708C60.6731 6.91708 60.393 7.1459 59.7457 7.19166C60.2695 7.42048 60.8058 7.05437 61.3535 7.19166C61.4832 7.19166 61.4552 7.10013 61.505 7.00861C62.6014 7.32896 62.504 6.45944 63.6731 6.55097L63.6772 6.73402C63.7799 6.68826 64.0631 6.59673 64.117 6.68826C64.3971 6.45944 64.451 6.55097 65.1232 6.45944L65.1294 6.73402C65.257 6.64249 65.673 6.68826 65.5641 6.45944C65.8494 6.45944 66.0299 6.41367 66.0008 6.27638C66.4925 6.23062 66.6263 6.41367 66.8795 6.13909C67.062 6.18485 67.1927 6.23062 67.1699 6.36791C67.2995 6.36791 67.2715 6.27638 67.3214 6.18485C67.4261 6.23062 67.7953 6.5052 67.7612 6.13909C68.4624 6.18485 67.7217 6.68826 67.4053 6.45944ZM77.2123 5.49839H77.5235L77.5276 5.68145H77.2164L77.2123 5.49839ZM130.121 4.58311C130.042 4.53735 130.221 4.44582 130.274 4.49158C130.353 4.53735 130.173 4.62887 130.121 4.58311ZM139.971 4.40005C139.995 4.30853 140.125 4.35429 140.126 4.40005C140.078 4.53735 139.972 4.44582 139.971 4.40005ZM147.752 4.44582C147.673 4.40005 147.852 4.30853 147.905 4.35429C148.01 4.40005 147.804 4.44582 147.752 4.44582ZM99.0135 5.13228C98.9347 5.08652 99.1142 4.99499 99.1671 5.04075C99.2459 5.08652 99.0664 5.17804 99.0135 5.13228ZM124.413 4.49158C124.334 4.44582 124.514 4.35429 124.567 4.40005C124.646 4.44582 124.466 4.53735 124.413 4.49158ZM146.739 4.40005C147.075 4.35429 147.155 4.44582 147.364 4.49158C147.42 4.67464 146.512 4.67464 146.739 4.40005ZM68.704 6.55097C68.702 6.45944 68.8835 6.45944 69.0132 6.45944C68.9893 6.55097 68.8078 6.55097 68.704 6.55097ZM109.124 4.99499C109.045 4.94922 109.225 4.8577 109.278 4.90346C109.357 4.94922 109.176 4.99499 109.124 4.99499ZM137.383 4.62887C137.304 4.58311 137.483 4.49158 137.536 4.53735C137.615 4.58311 137.435 4.62887 137.383 4.62887ZM44.9047 8.01542C44.8259 7.96965 45.0053 7.87812 45.0582 7.92389C45.1371 7.96965 44.9576 8.06118 44.9047 8.01542ZM62.4894 6.96284C62.4106 6.91708 62.5901 6.82555 62.6429 6.87131C62.7207 6.87131 62.5413 6.96284 62.4894 6.96284ZM100.023 5.04075C100.047 4.94922 100.177 4.99499 100.178 5.04075C100.155 5.13228 100.024 5.08652 100.023 5.04075ZM103.686 5.31534C103.607 5.26957 103.786 5.17804 103.839 5.22381C103.918 5.26957 103.738 5.3611 103.686 5.31534ZM113.267 4.7204C113.188 4.67464 113.368 4.58311 113.421 4.62887C113.5 4.67464 113.32 4.76617 113.267 4.7204ZM126.495 4.81193C126.493 4.7204 126.675 4.7204 126.804 4.7204C126.78 4.81193 126.599 4.81193 126.495 4.81193ZM24.9984 9.61716C24.9486 9.70869 25.2318 9.61716 25.2847 9.66292C25.3106 9.66292 25.2629 9.84598 25.2888 9.84598C25.5491 9.89174 26.0347 9.5714 26.3002 9.84598C26.4547 9.80022 26.3998 9.66292 26.5813 9.66292C26.8137 9.61716 26.8676 9.70869 26.8697 9.80022C27.3105 9.80022 27.5886 9.47987 27.7514 9.80022C28.4495 9.70869 29.6819 9.15952 29.6465 9.89174C28.0636 9.84598 27.0543 9.93751 25.6072 10.1663C25.8727 10.4409 26.2285 10.1206 26.9028 10.1206C26.8571 10.3951 27.6279 10.0748 27.5064 10.4409C26.9639 10.5324 26.8871 10.5782 26.3415 10.5324C26.1351 10.5782 26.3955 10.624 26.3477 10.807C25.3913 10.9443 24.8426 10.7613 24.3291 10.9901C24.0417 10.8986 23.576 10.9443 23.4412 10.7155C23.1611 10.9443 22.742 10.7613 22.4298 10.7155C21.4993 10.8528 21.0035 10.7155 20.1249 10.8528C19.656 10.7613 20.6404 10.7155 20.8479 10.7155C18.6446 10.7613 15.1799 11.2189 12.5877 11.2647C13.7195 10.8528 14.6572 11.0358 16.3376 10.807C16.3076 10.624 15.9715 10.6697 15.6095 10.7155C15.375 10.6697 15.6074 10.624 15.7371 10.624L16.3066 10.5782C16.54 10.5782 16.5638 10.4867 16.7443 10.4409C17.7008 10.3036 19.0493 10.3036 19.7692 10.029C20.2858 9.93751 20.3428 10.1663 20.7826 10.1206C22.1011 9.93751 23.3407 9.70869 24.2525 9.89174C24.7193 9.89174 24.5316 9.61716 24.9984 9.61716ZM37.1092 8.47306C37.1331 8.38153 37.2638 8.42729 37.2648 8.47306C37.2409 8.56459 37.1102 8.51882 37.1092 8.47306ZM43.3249 8.10694C43.3228 8.01542 43.5043 8.01542 43.634 8.01542C43.636 8.10695 43.4545 8.10694 43.3249 8.10694ZM90.468 5.68145C90.3892 5.63568 90.5687 5.54416 90.6216 5.58992C90.7004 5.63568 90.5199 5.68145 90.468 5.68145ZM91.5043 5.63568C91.4255 5.58992 91.605 5.49839 91.6579 5.54416C91.7357 5.54416 91.5562 5.63568 91.5043 5.63568ZM107.57 5.08652C107.491 5.04075 107.671 4.94922 107.724 4.99499C107.803 5.04075 107.622 5.08652 107.57 5.08652ZM147.529 4.90346C147.45 4.8577 147.629 4.76617 147.682 4.81193C147.761 4.8577 147.556 4.94922 147.529 4.90346ZM12.5805 10.9443C12.5784 10.8528 12.7599 10.8528 12.8886 10.807C12.8647 10.8986 12.6832 10.8986 12.5805 10.9443ZM54.7219 7.51201C54.7458 7.42048 55.031 7.42048 55.029 7.32896C55.5238 7.42048 55.1109 7.51201 55.3505 7.7866C55.0382 7.74083 55.0331 7.51201 54.7219 7.51201ZM54.724 7.60354C54.8359 7.96965 54.2053 7.60354 53.7416 7.74083C53.89 7.42048 53.2997 7.69507 53.4481 7.37472C54.1971 7.23743 53.9252 7.83236 54.724 7.60354ZM76.9912 6.04756C76.9124 6.0018 77.0919 5.91027 77.1447 5.95603C77.2236 6.0018 77.0441 6.09333 76.9912 6.04756ZM83.9931 6.04756C83.991 5.95603 84.1725 5.95603 84.3022 5.95603C84.2783 6.04756 84.0968 6.04756 83.9931 6.04756ZM95.1298 5.40686C95.0509 5.3611 95.2304 5.26957 95.2833 5.31534C95.3611 5.31534 95.1816 5.40686 95.1298 5.40686ZM99.0238 5.58992C99.0217 5.49839 99.2033 5.49839 99.3329 5.49839C99.3091 5.58992 99.1275 5.58992 99.0238 5.58992ZM7.93005 11.7223C7.928 11.6308 8.10953 11.6308 8.23816 11.585C8.24022 11.6765 8.05869 11.6765 7.93005 11.7223ZM10.7683 11.0816C10.6894 11.0358 10.8689 10.9443 10.9218 10.9901C10.9996 10.9901 10.8201 11.0816 10.7683 11.0816ZM69.9457 6.41367C69.871 6.55097 69.7424 6.59673 69.4841 6.64249C69.4011 6.41367 69.6864 6.41367 69.9457 6.41367ZM98.7655 5.63568C98.6867 5.58992 98.8661 5.49839 98.919 5.54416C98.9979 5.58992 98.8174 5.63568 98.7655 5.63568ZM147.011 4.94922C146.932 4.90346 147.112 4.81193 147.165 4.8577C147.243 4.90346 147.037 4.94922 147.011 4.94922ZM53.1919 7.51201C53.113 7.46625 53.2925 7.37472 53.3454 7.42048C53.4242 7.46625 53.2188 7.55778 53.1919 7.51201ZM89.9234 5.68145C89.9473 5.58992 90.078 5.63568 90.079 5.68145C90.0552 5.77298 89.9245 5.72721 89.9234 5.68145ZM99.0238 5.58992C98.945 5.54416 99.1244 5.45263 99.1773 5.49839C99.2562 5.54416 99.0767 5.63568 99.0238 5.58992ZM147.798 5.3611C147.719 5.31534 147.899 5.22381 147.952 5.26957C148.031 5.31534 147.85 5.3611 147.798 5.3611ZM36.1091 8.97646C36.8093 8.97646 36.9649 8.97646 37.662 8.83917C37.7781 9.38834 36.7793 8.79341 36.9732 9.34258C36.8384 9.11375 36.0914 9.34258 36.1091 8.97646ZM55.533 7.83236C55.4542 7.7866 55.6337 7.69507 55.6866 7.74083C55.7654 7.7866 55.5859 7.87812 55.533 7.83236ZM89.1465 5.72721C89.1693 5.58992 89.4556 5.63568 89.4577 5.72721C89.4089 5.86451 89.328 5.72721 89.1465 5.72721ZM145.957 5.3611C146.219 5.49839 146.507 5.58992 146.59 5.81874C146.175 5.81874 146.066 5.58992 145.957 5.3611ZM146.994 5.3611C147.043 5.22381 147.303 5.26957 147.306 5.3611C147.177 5.40686 147.049 5.49839 146.994 5.3611ZM149.585 5.22381C149.582 5.13228 149.765 5.17804 149.894 5.13228C149.896 5.22381 149.713 5.17804 149.585 5.22381ZM53.7208 7.96965C53.642 7.92389 53.8215 7.83236 53.8744 7.87812C53.9522 7.87812 53.7727 7.96965 53.7208 7.96965ZM79.85 6.32215C79.8479 6.23062 80.0295 6.23062 80.1591 6.23062C80.1352 6.32215 79.9527 6.27638 79.85 6.32215ZM85.8063 5.95603C85.7275 5.91027 85.9069 5.81874 85.9598 5.8645C86.0387 5.91027 85.8592 6.0018 85.8063 5.95603ZM91.7729 6.04756C91.6941 6.0018 91.8735 5.91027 91.9264 5.95603C92.0053 6.0018 91.8258 6.09333 91.7729 6.04756ZM2.52759 12.5003C2.44876 12.4545 2.62823 12.363 2.68113 12.4088C2.75892 12.4088 2.57945 12.5003 2.52759 12.5003ZM79.3324 6.36791C79.2535 6.32215 79.433 6.23062 79.4859 6.27638C79.5647 6.32215 79.3842 6.36791 79.3324 6.36791ZM87.1371 6.32215C87.0583 6.27638 87.2377 6.18485 87.2906 6.23062C87.3695 6.27638 87.1641 6.36791 87.1371 6.32215ZM88.691 6.23062C88.6122 6.18485 88.7917 6.09333 88.8445 6.13909C88.9234 6.18485 88.718 6.27638 88.691 6.23062ZM145.726 5.45263C145.647 5.40686 145.826 5.31534 145.879 5.3611C145.958 5.40686 145.779 5.49839 145.726 5.45263ZM30.7855 9.80022C31.298 9.52563 30.4297 10.1206 30.7855 9.80022ZM85.0656 6.45944C84.9867 6.41367 85.1662 6.32215 85.2191 6.36791C85.2979 6.41367 85.0925 6.5052 85.0656 6.45944ZM150.138 5.63568C150.06 5.58992 150.239 5.49839 150.292 5.54416C150.398 5.63568 150.191 5.68145 150.138 5.63568ZM31.2004 9.80022C31.2243 9.70869 31.4836 9.70869 31.6641 9.66292C31.6413 9.80022 31.3809 9.75445 31.2004 9.80022ZM41.1992 9.29681C41.2231 9.20528 41.1453 9.20528 41.0415 9.20528C41.2169 8.9307 41.5093 9.25105 41.2012 9.38834C41.0187 9.34258 41.1214 9.29681 41.1992 9.29681ZM52.1669 8.06118C52.0881 8.01542 52.2676 7.92389 52.3204 7.96965C52.3982 7.96965 52.2188 8.06118 52.1669 8.06118ZM86.8788 6.36791C86.8 6.32215 86.9794 6.23062 87.0323 6.27638C87.1112 6.32215 86.9047 6.36791 86.8788 6.36791ZM37.442 9.4341C37.3632 9.38834 37.5427 9.29681 37.5955 9.34258C37.6733 9.34258 37.4679 9.4341 37.442 9.4341ZM40.5229 9.20528C40.5208 9.11376 40.7023 9.11375 40.831 9.06799C40.8341 9.20528 40.6525 9.20528 40.5229 9.20528ZM44.4336 8.97646C44.3548 8.9307 44.5342 8.83917 44.5871 8.88493C44.6659 8.9307 44.4605 9.02223 44.4336 8.97646ZM46.5051 8.83917C46.4263 8.79341 46.6058 8.70188 46.6587 8.74764C46.7375 8.79341 46.5321 8.88493 46.5051 8.83917ZM88.4068 6.27638C88.4047 6.18485 88.5863 6.18485 88.7159 6.18485C88.7169 6.23062 88.5095 6.23062 88.4068 6.27638ZM148.844 5.72721C148.868 5.63568 148.998 5.68145 148.999 5.72721C148.976 5.81874 148.845 5.77298 148.844 5.72721ZM33.272 9.66292C33.2699 9.5714 33.4514 9.5714 33.5801 9.52563C33.5832 9.66292 33.4006 9.61716 33.272 9.66292ZM43.139 9.06799C43.0602 9.02223 43.2396 8.9307 43.2925 8.97646C43.3714 9.02223 43.1649 9.06799 43.139 9.06799ZM83.8478 6.5052C84.3343 6.23062 83.44 6.82555 83.8478 6.5052ZM84.6247 6.45944C85.1123 6.23062 84.2429 6.77979 84.6247 6.45944ZM86.1776 6.32215C86.3591 6.32215 86.2574 6.41367 86.1796 6.41367C86.2387 6.73402 86.7294 6.64249 87.0904 6.55097C86.9741 7.1459 86.0862 6.87131 85.5737 7.1459C85.4597 6.68826 85.8705 6.5052 86.1776 6.32215ZM151.47 6.04756C151.391 6.0018 151.571 5.91027 151.624 5.95603C151.703 6.0018 151.496 6.04756 151.47 6.04756ZM85.3072 6.82555C85.6443 6.82555 85.1588 7.1459 84.8466 7.10014C84.606 6.77979 85.3642 7.05437 85.3072 6.82555ZM144.208 6.0018C144.129 5.95603 144.309 5.8645 144.362 5.91027C144.441 6.0018 144.235 6.04756 144.208 6.0018ZM49.3277 8.65611C49.2488 8.61035 49.4283 8.51882 49.4812 8.56459C49.586 8.61035 49.3806 8.70188 49.3277 8.65611ZM80.6632 6.73402C80.5843 6.68826 80.7638 6.59673 80.8167 6.64249C80.8955 6.68826 80.6901 6.77979 80.6632 6.73402ZM82.5188 7.37472C82.1288 7.32896 82.2376 7.55778 81.9524 7.55778C81.9544 7.6493 82.1349 7.60354 82.2397 7.6493C82.0135 7.96965 81.775 7.74083 81.2335 7.87812C81.1017 7.7866 81.1505 7.6493 80.942 7.60354C81.1682 7.28319 81.2324 7.83236 81.5167 7.7866C81.9534 7.60354 82.1796 7.28319 82.4846 7.00861C82.9286 7.1459 83.2097 6.96284 83.497 7.05437C83.3715 7.23743 82.9576 7.28319 82.4908 7.28319C82.8051 7.42048 82.8102 7.6493 82.5188 7.37472ZM148.428 5.68145C148.662 5.72721 148.486 5.95603 148.745 5.95603C148.697 6.13909 148.067 5.77298 148.428 5.68145ZM149.139 6.18485C149.061 6.13909 149.24 6.04756 149.293 6.09333C149.372 6.13909 149.191 6.18485 149.139 6.18485ZM150.149 6.09333C150.173 6.0018 150.303 6.04756 150.304 6.09333C150.28 6.18485 150.15 6.13909 150.149 6.09333ZM73.9299 7.1459C73.8511 7.10014 74.0305 7.00861 74.0834 7.05437C74.1623 7.10014 73.9828 7.19166 73.9299 7.1459ZM79.6112 7.23743C79.6351 7.1459 79.7658 7.19166 79.7668 7.23743C79.743 7.32896 79.6123 7.28319 79.6112 7.23743ZM80.1289 7.19166C80.1527 7.10014 80.2834 7.1459 80.2845 7.19166C80.2606 7.28319 80.1299 7.23743 80.1289 7.19166ZM81.7097 7.1459C81.6309 7.10014 81.8104 7.00861 81.8633 7.05437C81.9421 7.10014 81.7616 7.1459 81.7097 7.1459ZM87.6899 6.68826C88.1048 6.68826 87.4866 6.87131 87.6981 7.05437C88.3745 7.1459 87.8694 6.59673 88.4669 6.64249C88.0643 7.19166 88.8579 6.73402 88.944 7.10014C88.2158 7.00861 87.9875 7.23743 87.387 7.05437C87.4617 6.91708 87.6152 6.82555 87.6899 6.68826ZM147.316 5.81874C147.237 5.77298 147.416 5.68145 147.469 5.72721C147.548 5.77298 147.343 5.8645 147.316 5.81874ZM148.103 6.23062C148.024 6.18485 148.204 6.09333 148.257 6.13909C148.335 6.18485 148.156 6.27638 148.103 6.23062ZM48.8463 9.15952C48.7674 9.11375 48.9469 9.02223 48.9998 9.06799C49.0786 9.11375 48.8732 9.20528 48.8463 9.15952ZM70.8324 7.7866C70.8562 7.69507 70.9869 7.74083 70.988 7.7866C70.9381 7.87812 70.8075 7.83236 70.8324 7.7866ZM85.3352 6.91708C85.2564 6.87131 85.4358 6.77979 85.4887 6.82555C85.5675 6.87131 85.387 6.91708 85.3352 6.91708ZM53.7663 8.83917C53.6875 8.79341 53.8669 8.70188 53.9198 8.74764C53.9987 8.79341 53.7933 8.88493 53.7663 8.83917ZM74.9505 7.55778C74.9485 7.46625 75.13 7.46625 75.2597 7.46625C75.2607 7.51201 75.0792 7.51201 74.9505 7.55778ZM78.1631 7.42048C78.0573 7.32896 78.0034 7.23743 78.1611 7.32896C78.3187 7.42048 78.2948 7.51201 78.1631 7.42048ZM78.6019 7.32896C78.5231 7.28319 78.7026 7.19166 78.7554 7.23743C78.8343 7.28319 78.6548 7.37472 78.6019 7.32896ZM80.078 7.23743C80.1091 7.46625 80.3343 7.10013 80.6745 7.23743L80.6848 7.69507C80.5551 7.69507 80.579 7.60354 80.5251 7.51201C80.3954 7.51201 80.3964 7.55778 80.3715 7.60354C79.9556 7.55778 80.6018 7.46625 80.5209 7.32896C80.2357 7.32896 80.3456 7.60354 79.9296 7.55778C79.9276 7.46625 79.7471 7.51201 79.6423 7.46625C79.5853 7.23743 79.8426 7.1459 80.2316 7.1459C80.2336 7.23743 80.1558 7.23743 80.078 7.23743ZM82.9774 7.00861C83.0251 6.82555 83.524 7.10014 83.4503 7.28319C82.9098 7.46625 83.3653 6.96284 82.9774 7.00861ZM83.2367 7.00861C83.2346 6.91708 83.4161 6.91708 83.5458 6.91708C83.5479 7.00861 83.3663 7.00861 83.2367 7.00861ZM49.6232 9.11375C49.5444 9.06799 49.7239 8.97646 49.7768 9.02223C49.8556 9.06799 49.6502 9.15952 49.6232 9.11375ZM51.9541 8.97646C51.8753 8.9307 52.0547 8.83917 52.1076 8.88493C52.1865 8.9307 51.98 8.97646 51.9541 8.97646ZM53.508 8.88493C53.4292 8.83917 53.6086 8.74764 53.6615 8.79341C53.7404 8.83917 53.5339 8.88493 53.508 8.88493ZM57.9104 8.61035C57.8316 8.56459 58.011 8.47306 58.0639 8.51882C58.1428 8.56459 57.9363 8.61035 57.9104 8.61035ZM73.3592 8.29C73.2274 8.19847 73.0998 8.29 72.632 8.24424C72.6746 7.83236 73.1216 8.10694 73.325 7.92389C73.5294 7.7866 73.7307 7.51201 74.02 7.69507C74.1217 7.60354 74.407 7.60354 74.4308 7.51201C74.6414 7.6493 74.7523 7.96965 74.5988 8.06118C74.3374 7.96965 73.7409 7.96965 74.1859 8.15271C74.0624 8.42729 73.6932 8.15271 73.6144 8.10694C73.2015 8.19847 73.7481 8.29 73.6226 8.47306C73.4131 8.38153 73.2575 8.38153 73.0531 8.51882C72.688 8.42729 73.3083 8.33577 73.3592 8.29ZM77.3073 7.42048C77.2285 7.37472 77.408 7.28319 77.4609 7.32896C77.5387 7.32896 77.3592 7.42048 77.3073 7.42048ZM77.5656 7.37472C77.4868 7.32896 77.6663 7.23743 77.7192 7.28319C77.798 7.32896 77.6185 7.42048 77.5656 7.37472ZM88.944 7.10014C89.0187 6.96284 89.0736 7.10014 89.2551 7.10014C89.2323 7.23743 88.9719 7.19166 88.944 7.10014ZM17.5573 11.9969C17.4785 11.9511 17.6579 11.8596 17.7108 11.9054C17.7897 11.9511 17.6102 12.0427 17.5573 11.9969ZM21.8208 11.3104C21.8208 11.3104 21.7928 11.2189 21.8187 11.2189C22.3613 11.1274 21.8539 11.6308 21.6693 11.4935C21.6952 11.4935 21.7948 11.3104 21.8208 11.3104ZM52.9634 8.88493C52.9873 8.79341 53.118 8.83917 53.119 8.88493C53.0951 8.97646 52.9644 8.9307 52.9634 8.88493ZM72.6186 7.6493C72.6933 7.51201 72.7742 7.6493 72.7763 7.74083C72.7016 7.87812 72.6207 7.74083 72.6186 7.6493ZM74.6912 7.55778C74.8147 7.28319 75.3136 7.55778 75.1642 7.83236C74.6227 7.96965 75.0792 7.51201 74.6912 7.55778ZM75.9442 7.92389C75.2617 7.55778 76.7419 7.6493 76.6829 7.32896C76.9463 7.51201 77.797 7.28319 78.0345 7.46625C77.8622 7.87812 77.911 7.74083 78.3539 7.83236C77.9742 8.24424 77.3613 7.51201 77.2937 7.96965C77.1122 7.96965 77.2139 7.87812 77.2917 7.87812C77.2036 7.42048 76.3281 7.69507 75.9442 7.92389ZM79.3892 7.74083C79.3103 7.69507 79.4898 7.60354 79.5427 7.6493C79.6215 7.69507 79.441 7.74083 79.3892 7.74083ZM84.0499 7.42048C84.0737 7.32896 84.2044 7.37472 84.2054 7.42048C84.1556 7.51201 84.0509 7.46625 84.0499 7.42048ZM85.3444 7.32896C85.3673 7.19166 85.6536 7.23743 85.6556 7.32896C85.5809 7.46625 85.5 7.32896 85.3444 7.32896ZM148.735 6.64249C149.195 6.36791 148.326 6.91708 148.735 6.64249ZM5.21307 13.141C5.36866 13.141 5.29292 13.2325 5.21513 13.2325C5.32091 13.3241 5.47651 13.324 5.65907 13.3698C5.91737 13.324 6.14871 13.2325 6.22445 13.141C6.74722 13.324 7.3375 13.0495 7.70467 13.2325C8.24412 13.0037 8.76689 13.1868 9.1528 13.0495C9.48992 13.0495 9.00337 13.324 8.87474 13.3698C8.98361 13.5986 8.83007 13.6902 8.44108 13.6902C8.43902 13.5986 8.62055 13.5986 8.72325 13.5529C8.7461 13.4156 8.5905 13.4156 8.56148 13.2783C8.22436 13.2783 8.01895 13.3698 7.99611 13.5071C7.75963 13.3698 7.24406 13.5071 7.11851 13.6902C6.82707 13.4156 6.44734 13.8275 6.23268 13.5071C6.02624 13.5529 6.2866 13.5986 6.23885 13.7817C5.82701 13.919 5.73481 13.2783 5.50862 13.5986C5.32606 13.5529 4.98379 13.324 5.21307 13.141ZM5.71505 13.5529C5.71711 13.6444 5.53558 13.6444 5.40694 13.6902C5.43082 13.5986 5.61235 13.5986 5.71505 13.5529ZM18.3343 11.9511C18.2554 11.9054 18.4349 11.8138 18.4878 11.8596C18.5666 11.9054 18.3871 11.9969 18.3343 11.9511ZM44.4542 9.89174C44.3753 9.84598 44.5548 9.75445 44.6077 9.80022C44.6865 9.84598 44.507 9.93751 44.4542 9.89174ZM47.811 9.25105C47.7322 9.20528 47.9117 9.11375 47.9646 9.15952C48.0423 9.15952 47.8629 9.25105 47.811 9.25105ZM53.7404 8.83917C53.7642 8.74764 53.8949 8.79341 53.896 8.83917C53.8721 8.9307 53.7414 8.88493 53.7404 8.83917ZM55.0619 8.79341C54.9831 8.74764 55.1626 8.65611 55.2154 8.70188C55.2932 8.70188 55.0878 8.79341 55.0619 8.79341ZM78.8715 7.7866C78.7927 7.74083 78.9722 7.6493 79.0251 7.69507C79.1029 7.69507 78.9234 7.7866 78.8715 7.7866ZM79.1298 7.74083C79.051 7.69507 79.2305 7.60354 79.2834 7.6493C79.3622 7.69507 79.1827 7.7866 79.1298 7.74083ZM82.2376 7.55778C82.2356 7.46625 82.4171 7.46625 82.5468 7.46625C82.5229 7.55778 82.3404 7.51201 82.2376 7.55778ZM2.32505 13.8732C2.24623 13.8275 2.4257 13.7359 2.47859 13.7817C2.55742 13.8275 2.37795 13.919 2.32505 13.8732ZM4.59171 13.1868C4.8002 13.2325 4.88108 13.3698 4.9101 13.5071C4.57298 13.5071 4.36757 13.5986 4.34473 13.7359C4.12903 13.3698 3.69743 13.7817 3.61038 13.3698C4.02427 13.324 4.47027 13.5529 4.59171 13.1868ZM20.1475 11.8596C20.0687 11.8138 20.2481 11.7223 20.301 11.7681C20.3799 11.8138 20.1994 11.8596 20.1475 11.8596ZM20.8965 11.7223L21.2066 11.6765L21.2107 11.8596L20.9006 11.9054L20.8965 11.7223ZM53.5183 9.34258C53.4395 9.29681 53.6189 9.20528 53.6718 9.25105C53.7507 9.29681 53.5702 9.34258 53.5183 9.34258ZM54.5546 9.29681C54.4757 9.25105 54.6552 9.15952 54.7081 9.20528C54.7859 9.20528 54.6064 9.29681 54.5546 9.29681ZM56.1075 9.15952C56.0286 9.11375 56.2081 9.02223 56.261 9.06799C56.3398 9.11375 56.1603 9.20528 56.1075 9.15952ZM84.5685 7.42048C84.5665 7.32896 84.748 7.32896 84.8776 7.32896C84.8527 7.37472 84.6712 7.37472 84.5685 7.42048ZM14.1858 13.141C14.165 13.3698 13.7958 13.0952 13.6143 13.0952C12.997 13.3241 11.8768 13.0952 11.1838 13.4156C10.5064 13.2783 10.2751 13.3698 9.31662 13.4156C9.28555 13.1868 9.51688 13.0952 9.56463 12.9122C9.92666 12.8664 10.0335 13.0037 10.1662 13.141C10.8333 12.8206 11.688 12.7749 12.437 12.6376C12.5179 12.7749 12.6496 12.8664 12.7554 12.9579C13.3768 12.9122 13.3187 12.6376 14.1724 12.5461C14.1247 12.7291 14.3062 12.7291 14.4608 12.6834C14.385 12.7749 14.3093 12.8664 14.3373 12.9579C13.8715 13.0037 13.7948 13.0495 14.1858 13.141ZM56.8844 9.11375C56.8056 9.06799 56.9851 8.97646 57.0379 9.02223C57.1168 9.06799 56.9373 9.15952 56.8844 9.11375ZM75.5044 7.96965C75.5023 7.87812 75.6838 7.87812 75.8135 7.87812C75.8156 7.96965 75.6071 7.92389 75.5044 7.96965ZM79.3892 7.74083C79.3103 7.69507 79.4898 7.60354 79.5427 7.6493C79.6215 7.69507 79.441 7.74083 79.3892 7.74083ZM87.9449 7.6493C87.9688 7.55778 88.0995 7.60354 88.1005 7.6493C88.0766 7.74083 87.946 7.69507 87.9449 7.6493ZM89.1347 7.51201H89.4459C89.5278 7.69507 89.2426 7.69507 88.9833 7.69507C89.0071 7.60354 89.1368 7.60354 89.1347 7.51201ZM21.4421 11.7681C21.3632 11.7223 21.5427 11.6308 21.5956 11.6765C21.6744 11.7223 21.495 11.8138 21.4421 11.7681ZM78.3529 7.7866C78.274 7.74083 78.4535 7.6493 78.5064 7.69507C78.6112 7.74083 78.4058 7.83236 78.3529 7.7866ZM78.8715 7.7866C78.7927 7.74083 78.9722 7.6493 79.0251 7.69507C79.1029 7.69507 78.9234 7.7866 78.8715 7.7866ZM88.4895 7.6493C88.4107 7.60354 88.5902 7.51201 88.643 7.55778C88.7208 7.55778 88.5154 7.6493 88.4895 7.6493ZM53.232 9.29681C53.2559 9.20528 53.3866 9.25105 53.3876 9.29681C53.3647 9.4341 53.2341 9.38834 53.232 9.29681ZM84.3454 7.87812C84.2666 7.83236 84.446 7.74083 84.4989 7.7866C84.5778 7.83236 84.3724 7.92389 84.3454 7.87812ZM53.0007 9.38834C52.9218 9.34258 53.1013 9.25105 53.1542 9.29681C53.232 9.29681 53.0525 9.38834 53.0007 9.38834ZM76.3175 8.38153C76.2387 8.33577 76.4182 8.24424 76.4711 8.29C76.5499 8.33577 76.3704 8.42729 76.3175 8.38153ZM79.6847 8.19847C79.6059 8.15271 79.7853 8.06118 79.8382 8.10694C79.916 8.10694 79.7106 8.19847 79.6847 8.19847ZM72.4068 8.61035C72.4048 8.51882 72.5863 8.51882 72.716 8.51882C72.718 8.61035 72.5365 8.61035 72.4068 8.61035ZM1.06669 14.4224C0.987864 14.3766 1.16734 14.2851 1.22023 14.3309C1.29803 14.3309 1.09262 14.4224 1.06669 14.4224ZM8.12577 13.5071C8.58536 13.1868 7.71805 13.8275 8.12577 13.5071ZM76.0582 8.38153C75.9794 8.33577 76.1589 8.24424 76.2118 8.29C76.2906 8.33577 76.1111 8.42729 76.0582 8.38153ZM1.32499 14.3766C1.24616 14.3309 1.42564 14.2393 1.47853 14.2851C1.55736 14.3309 1.35195 14.4224 1.32499 14.3766ZM5.72842 14.1478C5.6496 14.102 5.82907 14.0105 5.88196 14.0563C5.95976 14.0563 5.75436 14.1478 5.72842 14.1478ZM7.24508 13.5529C7.16626 13.5071 7.34573 13.4156 7.39862 13.4613C7.47745 13.5071 7.29798 13.5986 7.24508 13.5529ZM7.76374 13.5529C7.68491 13.5071 7.86439 13.4156 7.91728 13.4613C7.99508 13.4613 7.81561 13.5529 7.76374 13.5529ZM9.03136 13.4156C9.05524 13.3241 9.18593 13.3698 9.18696 13.4156C9.16308 13.5071 9.03239 13.4613 9.03136 13.4156ZM10.3529 13.3698C10.2741 13.324 10.4536 13.2325 10.5064 13.2783C10.5853 13.3241 10.4058 13.4156 10.3529 13.3698ZM12.3985 13.2325C12.4224 13.141 12.5531 13.1868 12.5541 13.2325C12.5302 13.3241 12.3995 13.2783 12.3985 13.2325ZM70.076 8.74764C70.0999 8.65611 70.2305 8.70188 70.2316 8.74764C70.2077 8.83917 70.077 8.79341 70.076 8.74764ZM73.4691 8.56459C73.3902 8.51882 73.5697 8.42729 73.6226 8.47306C73.7014 8.51882 73.5209 8.56459 73.4691 8.56459ZM72.1745 8.65611C72.0956 8.61035 72.2751 8.51882 72.328 8.56459C72.4058 8.56459 72.2263 8.65611 72.1745 8.65611ZM72.4328 8.61035C72.3539 8.56459 72.5334 8.47306 72.5863 8.51882C72.6651 8.56459 72.4857 8.65611 72.4328 8.61035ZM8.57692 13.9647C8.49809 13.919 8.67756 13.8275 8.73046 13.8732C8.80825 13.8732 8.60285 13.9647 8.57692 13.9647ZM13.1246 13.2325C12.996 13.2783 12.8684 13.3698 12.6609 13.3698C12.6755 12.8664 13.1246 13.2325 13.4369 13.2783C13.3632 13.4613 13.1028 13.4156 13.1246 13.2325ZM14.2117 13.141C14.2346 13.0037 14.5199 13.0037 14.5219 13.0952C14.3933 13.141 14.2657 13.2325 14.2117 13.141ZM67.4868 8.9307C67.4848 8.83917 67.6663 8.83917 67.7959 8.83917C67.797 8.88493 67.6155 8.88493 67.4868 8.9307ZM69.4277 8.74764C69.327 8.88493 69.0946 8.9307 68.8104 8.97646C68.6476 8.65611 69.1683 8.74764 69.4277 8.74764ZM69.8436 8.79341C69.7648 8.74764 69.9443 8.65611 69.9971 8.70188C70.076 8.74764 69.8955 8.79341 69.8436 8.79341ZM71.4078 9.15952C71.4057 9.06799 71.5873 9.06799 71.7169 9.06799C71.692 9.11375 71.5105 9.11375 71.4078 9.15952ZM73.4793 9.02223C73.4005 8.97646 73.58 8.88493 73.6329 8.9307C73.7117 8.97646 73.5312 9.02223 73.4793 9.02223ZM73.97 8.9307C73.9939 8.83917 74.1246 8.88493 74.1256 8.9307C74.1028 9.06799 73.9721 9.02223 73.97 8.9307ZM1.59461 14.8343C1.51578 14.7885 1.69525 14.697 1.74814 14.7427C1.82697 14.7885 1.6475 14.88 1.59461 14.8343ZM14.9348 13.0037C15.22 13.0037 14.9181 13.4156 14.4752 13.3241C14.497 13.141 14.9908 13.1868 14.9348 13.0037ZM15.4005 12.9579L15.7107 12.9122C15.7926 13.0952 15.5074 13.0952 15.2491 13.141C15.274 13.0952 15.4026 13.0495 15.4005 12.9579ZM63.6642 9.61716C63.5854 9.5714 63.7648 9.47987 63.8177 9.52563C63.8966 9.5714 63.6911 9.66292 63.6642 9.61716ZM72.4161 9.02223C72.6474 8.9307 72.5209 9.06799 72.4182 9.11375C72.2128 9.20528 72.08 9.06799 72.2605 9.02223C72.3124 9.02223 72.3642 9.02223 72.4161 9.02223ZM10.8818 13.8275C10.803 13.7817 10.9825 13.6902 11.0354 13.7359C11.1132 13.7359 10.9337 13.8275 10.8818 13.8275ZM15.8009 13.4613C15.8247 13.3698 15.9554 13.4156 15.9564 13.4613C15.9326 13.5529 15.8019 13.5071 15.8009 13.4613ZM67.2637 9.38834C67.1849 9.34258 67.3643 9.25105 67.4172 9.29681C67.4961 9.34257 67.3166 9.4341 67.2637 9.38834ZM68.0407 9.34258C68.0635 9.20528 68.3498 9.25105 68.3519 9.34258C68.2771 9.47987 68.1952 9.29681 68.0407 9.34258ZM10.1049 13.8732C10.0261 13.8275 10.2055 13.7359 10.2584 13.7817C10.3362 13.7817 10.1568 13.8732 10.1049 13.8732ZM13.7293 13.5986C13.7532 13.5071 13.8839 13.5529 13.8849 13.5986C13.861 13.6902 13.7303 13.6444 13.7293 13.5986ZM19.417 12.8206C19.3382 12.7749 19.5177 12.6834 19.5706 12.7291C19.6494 12.7749 19.4689 12.8206 19.417 12.8206ZM57.6819 9.98327C57.6799 9.89174 57.8614 9.89174 57.9911 9.89174C57.9931 9.98327 57.8116 9.98327 57.6819 9.98327ZM60.0387 9.84598C59.9599 9.80022 60.1394 9.70869 60.1923 9.75445C60.2711 9.80022 60.0657 9.89174 60.0387 9.84598ZM61.852 9.75445C61.7731 9.70869 61.9526 9.61716 62.0055 9.66292C62.0833 9.66292 61.8779 9.75445 61.852 9.75445ZM64.9328 9.52563C64.9308 9.4341 65.1123 9.4341 65.242 9.4341C65.244 9.52563 65.0366 9.52563 64.9328 9.52563ZM71.1485 9.15952C71.0697 9.11375 71.2491 9.02223 71.302 9.06799C71.3808 9.11375 71.2014 9.20528 71.1485 9.15952ZM7.52396 14.4224C7.54783 14.3309 7.67853 14.3766 7.67956 14.4224C7.65568 14.5139 7.52499 14.4682 7.52396 14.4224ZM12.6941 13.6902C12.6152 13.6444 12.7947 13.5529 12.8476 13.5986C12.9264 13.6444 12.747 13.7359 12.6941 13.6902ZM18.4948 13.3241C18.9916 13.5071 18.0488 13.0952 18.4948 13.3241ZM52.8397 10.3036C52.8138 10.3036 52.3988 10.3036 52.5265 10.2121C52.681 10.1663 53.2826 10.3951 52.8397 10.3036ZM54.4445 10.1663C54.9164 10.3951 53.9985 9.93751 54.4445 10.1663ZM59.5979 9.84598C60.0585 9.5714 59.1902 10.1663 59.5979 9.84598ZM63.3789 9.61716C63.3769 9.52563 63.5584 9.52563 63.6881 9.52563C63.6901 9.61716 63.4827 9.61716 63.3789 9.61716ZM67.7824 9.38834C67.7803 9.29681 67.9618 9.29681 68.0915 9.29681C68.0666 9.34257 67.8851 9.34258 67.7824 9.38834ZM70.6308 9.20528C70.552 9.15952 70.7315 9.06799 70.7844 9.11375C70.8632 9.15952 70.6827 9.20528 70.6308 9.20528ZM3.92547 14.697C3.84664 14.6512 4.02612 14.5597 4.07901 14.6054C4.15681 14.6054 3.97734 14.697 3.92547 14.697ZM8.24802 14.3309C8.79467 14.4224 7.86417 14.5597 7.97202 14.7427C7.42434 14.6054 8.35587 14.5139 8.24802 14.3309ZM15.2822 13.4613C15.7459 13.3241 15.5716 13.6444 15.6006 13.7817C15.3921 13.7359 15.3122 13.6444 15.2822 13.4613ZM62.0843 9.70869C62.0823 9.61716 62.2638 9.61716 62.3935 9.61716C62.3955 9.70869 62.1881 9.70869 62.0843 9.70869ZM8.7428 14.4224C9.07067 14.0105 8.69711 14.697 8.59132 14.6054C8.48553 14.5139 8.7428 14.4224 8.7428 14.4224ZM13.471 13.6444C13.3922 13.5986 13.5717 13.5071 13.6246 13.5529C13.7034 13.5986 13.5229 13.6444 13.471 13.6444ZM16.0612 13.5071C15.9824 13.4613 16.1619 13.3698 16.2147 13.4156C16.2925 13.4156 16.1131 13.5071 16.0612 13.5071ZM17.3558 13.4156C17.277 13.3698 17.4564 13.2783 17.5093 13.3241C17.5871 13.3241 17.4077 13.4156 17.3558 13.4156ZM17.6141 13.3698C17.6888 13.2325 17.7687 13.3241 17.7717 13.4613C17.697 13.5986 17.5902 13.4613 17.6141 13.3698ZM3.20861 15.1088C3.10694 15.2004 2.92747 15.2919 2.74696 15.3377C2.35797 15.3377 3.00115 15.1088 3.20861 15.1088ZM46.5825 11.1274C46.5037 11.0816 46.6831 10.9901 46.736 11.0358C46.8149 11.0816 46.6354 11.1731 46.5825 11.1274ZM52.7981 10.7613C52.7193 10.7155 52.8988 10.624 52.9517 10.6697C53.0305 10.7155 52.85 10.7613 52.7981 10.7613ZM54.5854 10.6697C54.5035 10.4867 55.2815 10.4867 55.0533 10.7155H54.7421C54.7929 10.6697 54.6892 10.6697 54.5854 10.6697ZM56.2919 10.4409H56.603L56.6092 10.7155L56.1435 10.7613L56.1393 10.5782C56.269 10.5782 56.2929 10.4867 56.2919 10.4409ZM57.9775 10.4409C57.8987 10.3951 58.0781 10.3036 58.131 10.3494C58.2099 10.3951 58.0293 10.4409 57.9775 10.4409ZM66.7564 9.89174C66.7792 9.75445 67.0655 9.80022 67.0676 9.89174C66.9918 9.98327 66.9369 9.84598 66.7564 9.89174ZM10.1411 14.3309C10.0623 14.2851 10.2418 14.1936 10.2947 14.2393C10.3725 14.2393 10.193 14.3309 10.1411 14.3309ZM15.5788 13.9647C15.4999 13.919 15.6794 13.8275 15.7323 13.8732C15.8111 13.919 15.6057 14.0105 15.5788 13.9647ZM52.3573 10.7613C52.8698 10.4867 52.0014 11.0816 52.3573 10.7613ZM55.102 10.5782C55.1249 10.4409 55.4112 10.4867 55.4132 10.5782C55.2846 10.624 55.157 10.7155 55.102 10.5782ZM63.7772 10.029C64.2378 9.75445 63.3695 10.3494 63.7772 10.029ZM64.1931 10.0748C64.1143 10.029 64.2938 9.93751 64.3467 9.98327C64.4245 9.98327 64.245 10.0748 64.1931 10.0748ZM4.45236 15.0631C4.50114 14.9258 4.58202 15.0631 4.76252 15.0173C4.71374 15.1546 4.45441 15.1546 4.45236 15.0631ZM9.62246 14.3309C9.54363 14.2851 9.7231 14.1936 9.776 14.2393C9.85482 14.2851 9.67535 14.3766 9.62246 14.3309ZM10.9181 14.2851C10.8392 14.2393 11.0187 14.1478 11.0716 14.1936C11.1494 14.1936 10.944 14.2851 10.9181 14.2851ZM54.352 10.6697C54.2732 10.624 54.4527 10.5324 54.5056 10.5782C54.5834 10.5782 54.4039 10.6697 54.352 10.6697ZM3.1588 15.2004C3.15675 15.1088 3.33828 15.1088 3.46691 15.0631C3.44304 15.1546 3.26151 15.1546 3.1588 15.2004ZM45.2879 11.2189C45.2091 11.1731 45.3885 11.0816 45.4414 11.1274C45.5203 11.1731 45.3408 11.2647 45.2879 11.2189ZM51.9942 10.7613C52.0689 10.624 52.1239 10.7613 52.3054 10.7613C52.2815 10.8528 52.0222 10.8528 51.9942 10.7613ZM54.0927 10.6697C54.0139 10.624 54.1934 10.5324 54.2462 10.5782C54.3251 10.624 54.1456 10.7155 54.0927 10.6697ZM41.4393 11.9054C41.3605 11.8596 41.54 11.7681 41.5929 11.8138C41.6717 11.8596 41.4663 11.9511 41.4393 11.9054ZM6.0073 15.0173C5.92847 14.9716 6.10794 14.88 6.16084 14.9258C6.23966 14.9716 6.06019 15.0631 6.0073 15.0173ZM38.0732 12.1342C37.9944 12.0884 38.1739 11.9969 38.2268 12.0427C38.3046 12.0427 38.1251 12.1342 38.0732 12.1342ZM43.5109 11.7681C43.4321 11.7223 43.6115 11.6308 43.6644 11.6765C43.7433 11.7223 43.5378 11.8138 43.5109 11.7681ZM44.2878 11.7223C44.209 11.6765 44.3885 11.585 44.4414 11.6308C44.5202 11.6765 44.3148 11.7681 44.2878 11.7223ZM46.5917 11.5393C46.6156 11.4477 46.7463 11.4935 46.7473 11.5393C46.7245 11.6765 46.5938 11.6308 46.5917 11.5393ZM48.6902 11.4477C48.6114 11.402 48.7909 11.3104 48.8438 11.3562C48.9226 11.402 48.7172 11.4935 48.6902 11.4477ZM49.2089 11.4477C49.1301 11.402 49.3095 11.3104 49.3624 11.3562C49.4402 11.3562 49.2348 11.4477 49.2089 11.4477ZM51.7711 11.2189C51.8458 11.0816 51.9008 11.2189 52.0823 11.2189C52.0335 11.3562 51.7732 11.3104 51.7711 11.2189ZM37.5286 12.1342C37.7299 11.8596 38.4186 12.5003 37.5369 12.5003C37.4819 12.363 37.6365 12.3172 37.8429 12.2715C37.789 12.1799 37.7102 12.1342 37.5286 12.1342ZM39.3678 12.0427C39.289 11.9969 39.4685 11.9054 39.5213 11.9511C39.6002 11.9969 39.3948 12.0884 39.3678 12.0427ZM46.1011 11.6308C46.0222 11.585 46.2017 11.4935 46.2546 11.5393C46.3334 11.585 46.127 11.6308 46.1011 11.6308ZM47.628 11.4935C47.6519 11.402 47.7826 11.4477 47.7836 11.4935C47.7597 11.585 47.6291 11.5393 47.628 11.4935ZM49.7265 11.402C49.6477 11.3562 49.8272 11.2647 49.8801 11.3104C49.9589 11.3562 49.7535 11.4477 49.7265 11.402ZM51.2545 11.3104C51.1757 11.2647 51.3551 11.1731 51.408 11.2189C51.5128 11.2647 51.3064 11.3104 51.2545 11.3104ZM43.2526 11.8138C43.1738 11.7681 43.3532 11.6765 43.4061 11.7223C43.4839 11.7223 43.2785 11.8138 43.2526 11.8138ZM47.1374 11.585C47.0585 11.5393 47.238 11.4477 47.2909 11.4935C47.3687 11.4935 47.1633 11.585 47.1374 11.585ZM49.4672 11.402C49.3884 11.3562 49.5678 11.2647 49.6207 11.3104C49.6996 11.3562 49.4942 11.4477 49.4672 11.402ZM38.4455 12.5461C38.9175 12.7749 37.9995 12.3172 38.4455 12.5461ZM39.0928 12.5003C39.1136 12.2715 39.3542 12.5918 39.7142 12.4545C39.7193 12.6834 39.1976 12.5461 39.0928 12.5003ZM45.0648 11.6765C44.986 11.6308 45.1654 11.5393 45.2183 11.585C45.2972 11.6308 45.0918 11.7223 45.0648 11.6765ZM46.1011 11.6308C46.0222 11.585 46.2017 11.4935 46.2546 11.5393C46.3334 11.585 46.127 11.6308 46.1011 11.6308ZM48.4319 11.4935C48.3531 11.4477 48.5326 11.3562 48.5855 11.402C48.6643 11.4477 48.4579 11.4935 48.4319 11.4935ZM48.9236 11.4477C48.9216 11.3562 49.1031 11.3562 49.2317 11.3104C49.2348 11.4477 49.0263 11.402 48.9236 11.4477ZM49.7265 11.402C49.6477 11.3562 49.8272 11.2647 49.8801 11.3104C49.9589 11.3562 49.7535 11.4477 49.7265 11.402ZM38.8605 12.5461C38.7816 12.5003 38.9611 12.4088 39.014 12.4545C39.0918 12.4545 38.9123 12.5461 38.8605 12.5461ZM39.8677 12.363C40.6218 12.4545 40.1114 12.8206 39.8677 12.363ZM41.1115 12.3172C41.0627 12.4545 40.9341 12.5003 40.6498 12.5461C40.7245 12.4088 40.8521 12.3172 41.1115 12.3172ZM42.1996 12.2715C42.2235 12.1799 42.3542 12.2257 42.3552 12.2715C42.3324 12.4088 42.2017 12.363 42.1996 12.2715ZM45.5668 12.0884C45.6415 11.9511 45.7224 12.0884 45.7244 12.1799C45.6497 12.3172 45.5688 12.1799 45.5668 12.0884ZM46.6031 12.0427C46.601 11.9511 46.7825 11.9511 46.9112 11.9054C46.9143 12.0427 46.7327 12.0427 46.6031 12.0427ZM46.2141 12.0427C46.6747 11.7681 45.8063 12.363 46.2141 12.0427ZM36.012 12.7291C35.9331 12.6834 36.1126 12.5918 36.1655 12.6376C36.2433 12.6376 36.0638 12.7291 36.012 12.7291ZM39.3781 12.5003C39.2993 12.4545 39.4787 12.363 39.5316 12.4088C39.6105 12.4545 39.431 12.5461 39.3781 12.5003Z" fill="#232323"/>
</svg>
