<svg width="200" height="4" viewBox="0 0 200 4" fill="none" xmlns="http://www.w3.org/2000/svg">
<path d="M192.815 1.54338C194.737 4.40506 198.505 0.976893 199.988 3.19824C200.427 3.83858 189.13 4.12156 185.151 3.95144C164.426 3.11782 152.084 3.8201 130.149 3.10544C114.905 2.58932 103.177 3.19528 88.3148 3.05883C74.2671 2.97907 59.283 3.35828 44.9264 3.08584C35.3799 2.96655 21.4663 3.81612 12.66 3.56652C9.49529 3.45309 2.82995 4.14421 0.597616 3.09016C-1.86979 2.03043 3.82032 1.46394 8.23024 1.31108C17.3765 1.12436 32.2827 0.0764979 41.4679 0.22411C57.74 0.394605 78.6183 0.0835789 92.4484 0.0840009C103.854 -0.159314 111.811 0.180923 124.288 0.407967C139.223 0.731419 156 0.76593 170.427 0.743704C176.809 0.749568 191.515 -0.451303 192.815 1.54338ZM192.809 3.06202C193.763 2.52939 193.549 2.93172 193.437 2.41039C189.928 2.25162 188.809 2.48391 187.424 3.33952C186.849 3.77016 191.037 3.0563 192.809 3.06202ZM58.23 2.81425C59.2441 3.02395 68.3165 2.65023 68.3514 2.5029C68.4213 2.20824 65.4004 1.98715 62.7972 1.9984C60.7903 1.98701 57.3246 2.64423 58.23 2.81425Z" fill="#EFECE8"/>
</svg>
