<svg width="200" height="4" viewBox="0 0 200 4" fill="none" xmlns="http://www.w3.org/2000/svg">
<path d="M197.138 0.683752C197.58 0.429214 194.524 -0.123473 197.648 0.0248915C199.32 0.095756 200.556 0.662424 199.744 1.00844C199.08 1.26962 196.89 1.37508 195.44 1.29758C193.99 1.22008 196.512 0.984031 197.138 0.683752ZM193.363 1.52036C193.918 1.38314 193.284 1.20088 193.876 1.10277C198.633 3.41518 182.85 1.55187 190.53 0.961036C191.607 0.888753 192.808 1.65758 193.363 1.52036ZM185.398 0.631127C188.348 1.54903 183.304 2.02113 176.397 2.22684C167.931 2.479 156.116 2.34817 151.992 2.3503C139.583 2.31758 125.207 2.38369 113.399 2.73539C88.5186 3.31554 63.164 2.2201 37.8078 3.25696C30.3086 3.56078 12.7259 2.91778 7.35324 3.76174C1.57286 4.65807 -2.54531 2.76917 1.83081 2.31698C5.1308 1.93707 15.2617 1.27324 19.6877 1.58395C21.6591 1.72639 23.9626 1.73824 26.1905 1.67189C31.5374 1.51263 37.3974 0.935773 43.7868 0.906391C60.7268 0.884603 77.8141 0.777968 95.2335 0.540747C124.873 0.140718 143.826 0.54174 172.019 0.305476C178.185 0.28273 175.751 1.32079 181.472 1.31131C183.292 1.29733 183.729 0.801529 185.398 0.631127Z" fill="#EFECE8"/>
</svg>
