<svg width="200" height="4" viewBox="0 0 200 4" fill="none" preserveAspectRatio="none" xmlns="http://www.w3.org/2000/svg">
<path d="M148.198 0.324802C164.598 0.929045 172.406 0.477324 188.842 1.74908C190.814 1.90169 193.005 2.07126 195.289 2.28707C199.856 2.7187 202.059 3.35846 197.457 3.74542C195.093 3.95355 181.288 4.37138 179.292 3.27839C177.724 2.49218 144.312 2.37052 139.698 2.2873C128.557 2.09002 97.9362 2.06702 85.7456 2.1796C74.466 2.28447 51.6763 2.75013 39.0474 2.8288C37.2251 2.84423 15.508 3.19734 12.2209 2.94299C6.74251 2.51907 8.95698 2.88596 3.77851 2.79811C-5.97872 2.55149 5.6696 1.1455 10.6175 1.48926C16.7879 1.88851 11.8979 2.4096 16.8918 2.40495C20.9746 2.40802 17.0876 1.48153 19.5442 1.31965C19.5442 1.31965 34.6989 0.928022 38.3434 0.897176C55.6548 0.750654 82.5965 0.136988 94.8449 0.146189C112.087 0.150745 131.232 -0.284064 148.198 0.324802Z" fill="#232323"/>
</svg>
