<svg width="201" height="4" viewBox="0 0 201 4" fill="none" xmlns="http://www.w3.org/2000/svg">
<path d="M193.779 1.54338C195.71 4.40506 199.497 0.976893 200.987 3.19824C201.429 3.83858 190.076 4.12156 186.077 3.95144C165.248 3.11782 152.845 3.8201 130.8 3.10544C115.479 2.58932 103.692 3.19528 88.7564 3.05883C74.6384 2.97907 59.5794 3.35828 45.151 3.08584C35.5568 2.96655 21.5737 3.81612 12.7233 3.56652C9.54277 3.45309 2.8441 4.14421 0.600604 3.09016C-1.87914 2.03043 3.83942 1.46394 8.27139 1.31108C17.4634 1.12436 32.4441 0.0764979 41.6752 0.22411C58.0287 0.394605 79.0114 0.0835789 92.9107 0.0840009C104.373 -0.159314 112.37 0.180923 124.909 0.407967C139.919 0.731419 156.78 0.76593 171.279 0.743704C177.693 0.749568 192.472 -0.451303 193.779 1.54338ZM193.773 3.06202C194.732 2.52939 194.517 2.93172 194.404 2.41039C190.878 2.25162 189.753 2.48391 188.361 3.33952C187.783 3.77016 191.993 3.0563 193.773 3.06202ZM58.5211 2.81425C59.5403 3.02395 68.6581 2.65023 68.6932 2.5029C68.7634 2.20824 65.7274 1.98715 63.1111 1.9984C61.0943 1.98701 57.6113 2.64423 58.5211 2.81425Z" fill="#232323"/>
</svg>
